<?xml version="1.0" encoding="UTF-8" standalone="no"?>
<svg
   xmlns:dc="http://purl.org/dc/elements/1.1/"
   xmlns:cc="http://creativecommons.org/ns#"
   xmlns:rdf="http://www.w3.org/1999/02/22-rdf-syntax-ns#"
   xmlns:svg="http://www.w3.org/2000/svg"
   xmlns="http://www.w3.org/2000/svg"
   xmlns:sodipodi="http://sodipodi.sourceforge.net/DTD/sodipodi-0.dtd"
   xmlns:inkscape="http://www.inkscape.org/namespaces/inkscape"
   height="280"
   viewBox="0 0 560 280"
   width="560"
   id="svg3336"
   version="1.1"
   inkscape:version="0.91 r13725"
   sodipodi:docname="sprite.svg">
  <metadata
     id="metadata3855">
    <rdf:RDF>
      <cc:Work
         rdf:about="">
        <dc:format>image/svg+xml</dc:format>
        <dc:type
           rdf:resource="http://purl.org/dc/dcmitype/StillImage" />
        <dc:title></dc:title>
      </cc:Work>
    </rdf:RDF>
  </metadata>
  <defs
     id="defs3853" />
  <sodipodi:namedview
     pagecolor="#ffffff"
     bordercolor="#666666"
     borderopacity="1"
     objecttolerance="10"
     gridtolerance="10"
     guidetolerance="10"
     inkscape:pageopacity="0"
     inkscape:pageshadow="2"
     inkscape:window-width="1280"
     inkscape:window-height="751"
     id="namedview3851"
     showgrid="false"
     showguides="true"
     inkscape:guide-bbox="true"
     inkscape:zoom="6.9849566"
     inkscape:cx="363.25806"
     inkscape:cy="239.2835"
     inkscape:window-x="0"
     inkscape:window-y="0"
     inkscape:window-maximized="1"
     inkscape:current-layer="layer1">
    <sodipodi:guide
       position="157.85037,271.14858"
       orientation="0,1"
       id="guide3861" />
    <sodipodi:guide
       position="207.12329,210.36881"
       orientation="0,1"
       id="guide3863" />
    <sodipodi:guide
       position="139.55743,144.86828"
       orientation="1,0"
       id="guide3865" />
    <sodipodi:guide
       position="123.32982,116.83878"
       orientation="1,0"
       id="guide3867" />
    <sodipodi:guide
       position="188.83035,257.5764"
       orientation="0,1"
       id="guide4677" />
    <sodipodi:guide
       position="200.04215,220.40042"
       orientation="0,1"
       id="guide4679" />
    <sodipodi:guide
       position="161.27101,98.473375"
       orientation="0,1"
       id="guide3771" />
    <sodipodi:guide
       position="170.24211,77.819002"
       orientation="0,1"
       id="guide3773" />
    <sodipodi:guide
       position="150.96539,220.40042"
       orientation="1,0"
       id="guide4829" />
    <sodipodi:guide
       position="5.6102004,202.47723"
       orientation="1,0"
       id="guide4831" />
    <sodipodi:guide
       position="34.645885,262.56427"
       orientation="1,0"
       id="guide4944" />
    <sodipodi:guide
       position="51.940059,180.81973"
       orientation="0,1"
       id="guide4969" />
  </sodipodi:namedview>
  <g
     inkscape:groupmode="layer"
     id="layer3"
     inkscape:label="Layer 2" />
  <g
     inkscape:groupmode="layer"
     id="layer1"
     inkscape:label="Layer 1">
    <rect
       style="fill:#000000;fill-opacity:1;fill-rule:evenodd;stroke:#000000;stroke-width:1.28185427px;stroke-linecap:butt;stroke-linejoin:miter;stroke-opacity:1"
       id="rect3869"
       width="20.961559"
       height="77.315628"
       x="116.45494"
       y="1.9112097" />
    <g
       id="g3713"
       transform="matrix(0.10519594,0,0,0.10519594,259.0504,258.26489)">
      <path
         d="m 112.956,205.125 c 5.281,-17.05 11.402,-33.26 16.998,-49.994 -37.095,-64.878 8.812,-137.915 70.991,-143.982 58.707,-5.729 106.841,36.439 106.987,93.988 0.153,60.723 -58.74,111.713 -124.985,90.988 -4.997,-1.563 -11.18,-6.657 -16.998,-6.999 -8.131,-0.479 -18.787,5.359 -26.997,7.999 -8.999,2.895 -16.824,5.796 -25.996,8 z m 54.993,-33.996 c 53.495,32.466 117.551,-3.949 122.985,-56.993 4.918,-48.019 -33.424,-90.745 -84.99,-86.989 -58.87,4.287 -94.232,74.559 -57.993,125.984 -3.208,8.791 -6.21,17.788 -8.999,26.997 9.822,-2.844 18.876,-6.455 28.997,-8.999 z"
         id="path3715"
         inkscape:connector-curvature="0"
         style="clip-rule:evenodd;fill-rule:evenodd" />
      <path
         d="m 138.953,180.128 c 2.789,-9.209 5.791,-18.206 8.999,-26.997 -36.24,-51.425 -0.877,-121.697 57.993,-125.984 51.566,-3.756 89.908,38.97 84.99,86.989 -5.434,53.043 -69.49,89.458 -122.985,56.993 -10.122,2.544 -19.176,6.155 -28.997,8.999 z M 165.95,95.139 c 8.578,24.126 44.126,56.803 69.991,57.993 12.26,0.564 26.755,-5.796 25.996,-22.997 -7.382,-5.283 -15.892,-9.438 -24.996,-12.998 -4.358,4.307 -7.783,9.548 -12.999,12.998 -15.685,-6.979 -27.717,-17.61 -34.995,-32.996 14.331,-7.816 5.627,-25.226 0,-36.996 -22.233,-6.699 -28.087,20.681 -22.997,34.996 z"
         id="path3717"
         inkscape:connector-curvature="0"
         style="clip-rule:evenodd;fill:#ffffff;fill-rule:evenodd" />
      <path
         d="m 188.947,60.143 c 5.627,11.77 14.331,29.179 0,36.996 7.278,15.386 19.311,26.017 34.995,32.996 5.216,-3.45 8.641,-8.691 12.999,-12.998 9.104,3.561 17.614,7.715 24.996,12.998 0.759,17.201 -13.736,23.562 -25.996,22.997 -25.865,-1.19 -61.414,-33.867 -69.991,-57.993 -5.09,-14.315 0.764,-41.695 22.997,-34.996 z"
         id="path3719"
         inkscape:connector-curvature="0"
         style="clip-rule:evenodd;fill-rule:evenodd" />
    </g>
    <g
       id="g4854"
       transform="translate(0.38992995,-0.54590193)">
      <path
         d="m 212.75698,57.045982 c 0,0.889 0.262,1.317 1.084,1.317 0.824,0 1.088,-0.428 1.088,-1.317 l 0,-6.022 c 0,-0.889 -0.264,-1.317 -1.088,-1.317 -0.822,0 -1.084,0.428 -1.084,1.317 l 0,6.022 z m -2.04,-6.072 c 0,-1.68 0.986,-3.046 3.125,-3.046 2.139,0 3.128,1.366 3.128,3.046 l 0,6.121 c 0,1.68 -0.99,3.046 -3.128,3.046 -2.139,0 -3.125,-1.366 -3.125,-3.046 l 0,-6.121 z"
         id="path3374"
         inkscape:connector-curvature="0"
         style="fill:#231f20" />
      <path
         d="m 203.35198,52.058982 0,-0.922 c 0,-1.003 -0.461,-1.431 -0.988,-1.431 -0.824,0 -1.086,0.428 -1.086,1.317 l 0,6.024 c 0,0.889 0.262,1.317 1.086,1.317 0.741,0 0.988,-0.428 0.988,-1.201 l 0,-1.433 2.04,0 0,1.366 c 0,1.68 -0.988,3.046 -3.028,3.046 -2.141,0 -3.126,-1.366 -3.126,-3.046 l 0,-6.123 c 0,-1.68 0.986,-3.046 3.126,-3.046 2.04,0 3.028,1.482 3.028,3.258 l 0,0.873 -2.04,0 z"
         id="path3376"
         inkscape:connector-curvature="0"
         style="fill:#231f20" />
      <rect
         x="151.01299"
         y="48.097984"
         width="2.0480001"
         height="11.928"
         id="rect3378"
         style="fill:#231f20" />
      <polygon
         transform="translate(133.48998,5.4899818)"
         points="23.445,47.085 23.413,47.085 23.413,54.536 21.562,54.536 21.562,42.608 23.462,42.608 25.958,49.431 25.992,49.431 25.992,42.608 27.841,42.608 27.841,54.536 26.057,54.536 "
         id="polygon3380"
         style="fill:#231f20" />
      <polygon
         transform="translate(133.48998,5.4899818)"
         points="32.817,44.393 32.817,54.537 30.769,54.537 30.769,44.393 28.786,44.393 28.786,42.609 34.8,42.609 34.8,44.393 "
         id="polygon3382"
         style="fill:#231f20" />
      <polygon
         transform="translate(133.48998,5.4899818)"
         points="37.796,52.754 41.462,52.754 41.462,54.536 35.746,54.536 35.746,42.608 41.232,42.608 41.232,44.392 37.796,44.392 37.796,47.465 40.437,47.465 40.437,49.249 37.796,49.249 "
         id="polygon3384"
         style="fill:#231f20" />
      <path
         d="m 178.21698,53.449982 0.727,0 c 1.106,0 1.52,-0.414 1.52,-1.831 0,-1.423 -0.414,-1.837 -1.52,-1.837 l -0.727,0 0,3.668 z m 0,6.576 -2.048,0 0,-11.928 2.874,0 c 2.297,0 3.471,0.974 3.471,3.521 0,1.914 -0.743,2.691 -1.437,3.004 l 1.733,5.403 -2.082,0 -1.455,-4.94 c -0.262,0.035 -0.692,0.049 -1.057,0.049 l 0,4.891 z"
         id="path3386"
         inkscape:connector-curvature="0"
         style="fill:#231f20" />
      <polygon
         transform="translate(133.48998,5.4899818)"
         points="52.496,47.085 52.463,47.085 52.463,54.536 50.611,54.536 50.611,42.608 52.512,42.608 55.006,49.431 55.039,49.431 55.039,42.608 56.89,42.608 56.89,54.536 55.106,54.536 "
         id="polygon3388"
         style="fill:#231f20" />
      <path
         d="m 194.18798,55.598982 1.652,0 -0.81,-5.123 -0.032,0 -0.81,5.123 z m -0.663,4.427 -1.983,0 2.198,-11.928 2.545,0 2.198,11.928 -1.981,0 -0.365,-2.643 -2.247,0 -0.365,2.643 z"
         id="path3390"
         inkscape:connector-curvature="0"
         style="fill:#231f20" />
      <rect
         x="206.85597"
         y="48.097984"
         width="2.0480001"
         height="11.928"
         id="rect3392"
         style="fill:#231f20" />
      <polygon
         transform="translate(133.48998,5.4899818)"
         points="87.176,47.085 87.142,47.085 87.142,54.536 85.291,54.536 85.291,42.608 87.191,42.608 89.685,49.431 89.717,49.431 89.717,42.608 91.57,42.608 91.57,54.536 89.784,54.536 "
         id="polygon3394"
         style="fill:#231f20" />
      <path
         d="m 228.88598,55.598982 1.654,0 -0.81,-5.123 -0.034,0 -0.81,5.123 z m -0.66,4.427 -1.983,0 2.198,-11.928 2.545,0 2.198,11.928 -1.985,0 -0.363,-2.643 -2.245,0 -0.365,2.643 z"
         id="path3396"
         inkscape:connector-curvature="0"
         style="fill:#231f20" />
      <polygon
         transform="translate(133.48998,5.4899818)"
         points="102.925,52.754 106.148,52.754 106.148,54.536 100.878,54.536 100.878,42.608 102.925,42.608 "
         id="polygon3398"
         style="fill:#231f20" />
      <rect
         x="194.29897"
         y="23.081982"
         width="3.402"
         height="19.808001"
         id="rect3400"
         style="fill:#231f20" />
      <path
         d="m 206.67298,27.964982 c -0.138,-1.701 -1.043,-2.194 -1.812,-2.194 -1.096,0 -1.699,0.712 -1.699,1.948 0,3.373 6.913,4.993 6.913,10.369 0,3.264 -2.196,5.076 -5.378,5.076 -3.154,0 -4.966,-2.525 -5.102,-5.488 l 3.237,-0.465 c 0.138,2.003 0.932,2.991 2.028,2.991 1.181,0 1.977,-0.631 1.977,-1.812 0,-3.923 -6.915,-4.966 -6.915,-10.643 0,-3.156 1.922,-4.938 5.267,-4.938 2.772,0 4.418,2.003 4.719,4.8 l -3.235,0.356 z"
         id="path3402"
         inkscape:connector-curvature="0"
         style="fill:#231f20" />
      <polygon
         transform="translate(133.48998,5.4899818)"
         points="83.673,20.555 83.673,37.4 80.271,37.4 80.271,20.555 76.979,20.555 76.979,17.592 86.965,17.592 86.965,20.555 "
         id="polygon3404"
         style="fill:#231f20" />
      <path
         d="m 224.02798,22.038982 -2.279,0 2.168,-3.951 3.702,0 -3.591,3.951 z m -2.03,1.043 3.402,0 0,19.808 -3.402,0 0,-19.808 z"
         id="path3406"
         inkscape:connector-curvature="0"
         style="fill:#231f20" />
      <path
         d="m 230.25398,42.887982 -3.292,0 3.649,-19.806 4.225,0 3.649,19.806 -3.292,0 -0.603,-4.388 -3.73,0 -0.606,4.388 z m 1.098,-7.351 2.742,0 -1.342,-8.504 -0.055,0 -1.345,8.504 z"
         id="path3408"
         inkscape:connector-curvature="0"
         style="fill:#231f20" />
      <path
         d="m 154.97198,35.531982 2.744,0 -1.344,-8.512 -0.053,0 -1.347,8.512 z m -1.098,7.357 -3.296,0 3.653,-19.821 4.228,0 3.651,19.821 -3.294,0 -0.605,-4.394 -3.734,0 -0.603,4.394 z"
         id="path3410"
         inkscape:connector-curvature="0"
         style="fill:#231f20" />
      <polygon
         transform="translate(133.48998,5.4899818)"
         points="37.184,29.163 37.239,29.163 39.656,17.578 44.13,17.578 44.13,37.399 41.164,37.399 41.164,21.915 41.11,21.915 38.035,37.399 36.387,37.399 33.314,21.915 33.259,21.915 33.259,37.399 30.294,37.399 30.294,17.578 34.769,17.578 "
         id="polygon3412"
         style="fill:#231f20" />
      <polygon
         transform="translate(133.48998,5.4899818)"
         points="50.383,25.016 50.328,25.016 50.328,37.399 47.253,37.399 47.253,17.578 50.411,17.578 54.557,28.917 54.612,28.917 54.612,17.578 57.685,17.578 57.685,37.399 54.72,37.399 "
         id="polygon3414"
         style="fill:#231f20" />
    </g>
    <svg
       height="72"
       viewBox="0 0 62 72"
       width="62"
       x="117"
       y="82"
       id="svg3458"
       version="1.1"
       inkscape:version="0.91 r13725">
      <g
         id="g3460">
        <path
           d="m 40.526,40.123 c -0.227,-0.099 -0.256,-0.81 -0.386,-0.81 -0.197,0 -0.298,0.647 -0.68,0.743 -0.394,0.067 -0.976,-0.42 -1.141,-0.294 -0.164,0.134 0.367,1.055 -0.509,1.055 -0.262,0 -0.396,-0.298 -0.396,-0.524 l 0,-7.075 c 0,0 0.03,-0.01 0.422,0.087 0.258,0.067 0.518,0.195 0.518,0.554 0,0.191 -0.069,0.582 0.063,0.649 0.136,0.067 0.227,-0.067 0.294,-0.099 1.199,-0.875 1.492,0.68 1.751,0.68 0.229,0 0.197,-1.068 0.52,-1.068 0.262,-0.101 2.76,1.102 2.76,1.883 0,0.162 -0.327,0.191 -0.355,0.357 -0.032,0.229 0.584,0.323 0.485,0.747 -0.035,0.262 -0.617,0.585 -0.457,0.745 0.168,0.164 0.946,-0.16 1.011,-0.16 0.162,0 0.191,0.256 0.191,0.355 0,1.43 -3.341,2.502 -4.091,2.175 m -8.894,1.132 c -0.195,-0.319 -0.099,-0.873 -0.292,-0.873 -0.097,0 -0.615,0.781 -0.911,0.781 -0.29,0 -0.777,-0.554 -0.972,-0.554 -0.13,0 0.13,0.781 -0.13,1.102 -0.164,0.229 -1.721,0.396 -1.721,0.199 l 0,-11.04 c 0,-0.518 0.392,-0.714 0.745,-0.714 l 5.811,-0.002 c 0.712,0 1.005,0.225 1.005,0.972 l 0.006,9.908 c 10e-4,0.323 -3.413,0.453 -3.541,0.221 m 3.54,13.994 c 0,0.684 -0.231,0.844 -0.812,0.716 l -6.2,-1.234 c -0.359,-0.063 -0.554,-0.292 -0.554,-0.68 l 0,-11.233 c 0,-0.292 1.007,-0.325 1.169,-0.195 0.294,0.26 0.195,1.201 0.388,1.201 0.262,0 0.942,-1.137 1.236,-1.137 0.617,0 1.037,0.357 1.167,0.294 0.132,-0.067 0.132,-0.585 0.292,-0.716 0.227,-0.158 0.909,-0.158 1.266,-0.197 0.587,-0.032 1.658,-0.128 1.658,-0.128 0.422,0 0.39,0.296 0.39,0.913 l 0,12.396 z M 28.484,22.657 c 0,-4.481 6.624,-7.045 7.077,-9.318 0.487,0.455 0.552,1.201 0.552,1.851 0,2.726 -4.739,7.304 -4.739,10.615 0,0.359 0.032,0.453 0.032,0.682 0,0.323 -0.13,0.39 -0.193,0.39 -0.784,0.001 -2.729,-1.527 -2.729,-4.22 m -3.669,28.017 c -0.518,0 -0.844,-1.041 -0.974,-1.005 -0.162,0.034 0.035,0.875 -0.162,1.005 -0.162,0.16 -3.604,-1.429 -3.864,-1.685 -0.229,-0.229 0.099,-0.552 0,-0.781 -0.065,-0.195 -0.587,-0.132 -0.745,-0.231 -0.132,-0.128 0.158,-0.716 -0.032,-0.842 -0.168,-0.099 -0.52,0.585 -0.749,0.256 -0.101,-0.13 -0.128,-0.355 -0.128,-0.647 0,-1.981 2.107,-2.791 3.538,-3.278 0.582,-0.197 0.384,0.55 0.582,0.584 0.227,0.065 0.26,-0.357 0.52,-0.357 0.197,0 0.944,0.357 1.104,0.227 0.13,-0.097 -0.388,-0.584 -0.227,-0.779 0.197,-0.162 1.703,-0.446 1.689,-0.059 l 0.004,6.937 c 0.002,0.728 -0.556,0.655 -0.556,0.655 M 45.204,38.726 c 0.357,-0.615 0.357,-1.362 0.487,-1.656 0.191,-0.323 0.907,-0.26 0.907,-0.487 0,-0.095 -0.518,-0.225 -0.716,-0.355 -0.384,-0.227 -0.254,-1.396 -0.449,-1.396 -0.296,0 -0.587,0.81 -0.881,0.455 -0.516,-0.651 -2.661,-1.885 -3.633,-2.241 -0.359,-0.13 0.26,-1.201 0.099,-1.301 -0.164,-0.097 -0.585,0.653 -1.202,0.522 -0.487,-0.099 -0.26,-0.976 -0.52,-0.976 -0.13,0 -0.619,1.234 -0.976,1.135 -0.39,-0.097 -0.905,-0.237 -0.905,-0.237 l 0,-3.235 c 0,-0.552 -0.371,-0.98 -0.848,-0.976 l -3.507,0 c -0.974,0 -0.909,-0.714 -0.909,-0.877 0,-4.317 6.267,-5.031 6.267,-10.679 0,-2.468 -1.557,-4.124 -3.375,-5.587 -0.101,-0.063 0,0.359 0,0.52 0,2.63 -9.774,3.994 -9.774,10.065 0,5.289 5.261,5.516 5.261,6.33 0,0.162 -0.323,0.227 -0.357,0.227 l -4.025,0 c -0.422,0 -0.789,0.26 -0.783,0.968 l 0.004,3.253 c -0.392,0.13 -0.909,-0.455 -1.171,-0.455 -0.13,0 -0.063,1.007 -0.292,1.139 -0.195,0.095 -3.862,1.394 -4.191,1.427 -0.515,0.097 -0.384,-0.812 -0.676,-0.812 -0.264,0 -0.264,0.909 -0.913,0.909 -0.388,0 -0.712,-0.359 -1.003,-0.359 -0.195,0 0.42,0.749 0.42,0.974 0,0.619 -1.199,0.844 -1.199,1.268 0,0.227 1.134,-0.097 1.297,-0.097 0.584,0 0.52,0.684 0.743,0.684 0.229,0 0.39,-0.785 0.587,-0.911 0.386,-0.227 0.844,0.162 1.039,0.162 0.323,0 -0.26,-0.781 0.034,-0.911 0,0 3.956,-1.685 4.219,-1.557 0.227,0.132 0.197,0.52 0.455,0.651 0.258,0.128 0.651,-0.909 0.651,-0.262 l 0,7.956 c -0.457,0.288 -1.431,0.455 -1.952,0.455 -0.256,0 -0.13,-0.846 -0.292,-0.846 -0.26,0 -0.52,0.714 -0.909,0.714 -0.357,0 -0.875,-0.875 -1.23,-0.875 -0.227,0 0.418,1.102 0.03,1.297 -1.496,0.749 -3.864,1.463 -3.864,3.828 0,0.491 0.262,1.078 0.16,1.234 -0.093,0.231 -0.611,0.684 -0.582,0.879 0,0.195 0.974,0.128 1.171,0.424 0.095,0.158 0.162,0.873 0.359,0.873 0.158,0 0.58,-0.55 0.94,-0.357 1.133,0.684 3.113,1.427 4.025,1.92 0.223,0.13 0.095,0.842 0.223,0.907 0.262,0.13 0.779,-0.682 1.595,-0.229 0.164,0.067 0.325,0.327 0.325,0.619 l -0.004,2.655 c 0,0.487 0.225,0.615 0.487,0.68 l 9.679,1.926 c 0,0 0.86,0.193 1.151,0.193 0.337,0.014 0.755,-0.002 0.731,-0.816 l -0.004,-6.034 c 0,-0.061 0.077,-0.209 0.207,-0.209 0.568,-0.002 0.282,1.636 0.41,1.636 0.258,0 0.422,-1.104 0.749,-1.104 0.453,0 0.749,0.422 0.938,0.325 0.164,-0.097 -0.093,-0.619 -0.093,-0.944 0,-0.29 0.84,-0.42 1.881,-0.81 0.909,-0.321 1.656,-0.68 1.95,-0.68 0.225,0 0.384,0.615 0.584,0.615 0.162,0 0.193,-0.808 0.552,-0.808 0.29,0 0.938,0.451 1.104,0.321 0.128,-0.095 -0.325,-0.714 0.03,-0.976 0.262,-0.162 0.877,-0.548 0.877,-0.712 0,-0.097 -1.201,-0.132 -1.266,-0.132 -0.227,-0.063 -0.487,-0.777 -0.653,-0.777 -0.187,0 -0.187,0.714 -0.483,0.94 -0.262,0.193 -0.909,-0.682 -1.199,-0.682 -0.166,0 0.191,0.651 0.191,1.173 0,0.516 -3.146,1.524 -3.568,1.524 -0.651,0 -0.684,-0.812 -0.814,-0.812 -0.195,0 -0.189,0.992 -0.907,0.992 -0.359,0 -0.487,-0.268 -0.487,-0.461 l 0,-7.795 c 0,-0.223 0.065,-0.526 0.487,-0.544 0.534,-0.024 0.548,1.185 0.743,1.185 0.357,0 0.554,-1.201 1.234,-1.201 0.52,0 0.942,0.716 1.268,0.716 0.227,0 -0.388,-0.747 -0.388,-1.106 0.002,-0.353 3.215,-0.223 4.449,-2.399"
           id="path3462"
           inkscape:connector-curvature="0"
           style="fill:#231f20" />
      </g>
    </svg>
    <svg
       height="46"
       viewBox="0 0 50 46"
       width="50"
       x="184"
       y="82"
       id="svg3464"
       version="1.1"
       inkscape:version="0.91 r13725">
      <path
         d="m 26.1,32.4 -1.5,-1.5 7.8,-7.9 -7.9,-7.9 1.6,-1.5 9.4,9.4 -9.4,9.4 z"
         id="path3466"
         inkscape:connector-curvature="0"
         style="fill:#ffffff" />
      <path
         d="m 16.1,32.4 -1.5,-1.5 7.8,-7.9 -7.9,-7.9 1.6,-1.5 9.4,9.4 -9.4,9.4 z"
         id="path3468"
         inkscape:connector-curvature="0"
         style="fill:#ffffff" />
    </svg>
    <svg
       height="46"
       viewBox="0 0 50 46"
       width="50"
       x="5"
       y="159"
       id="svg3470"
       version="1.1"
       inkscape:version="0.91 r13725">
      <path
         d="m 15.6,24.1 1.5,-1.5 7.9,7.8 7.9,-7.9 1.5,1.6 -9.4,9.4 -9.4,-9.4 z"
         id="path3472"
         inkscape:connector-curvature="0"
         style="fill:#ffffff" />
      <path
         d="m 15.6,14.1 1.5,-1.5 7.9,7.8 7.9,-7.9 1.5,1.6 -9.4,9.4 -9.4,-9.4 z"
         id="path3474"
         inkscape:connector-curvature="0"
         style="fill:#ffffff" />
    </svg>
    <svg
       height="46"
       viewBox="0 0 50 46"
       width="50"
       x="60"
       y="159"
       id="svg3476"
       version="1.1"
       inkscape:version="0.91 r13725">
      <path
         d="m 23.9,13.6 1.5,1.5 -7.8,7.9 7.9,7.9 -1.6,1.5 -9.4,-9.4 9.4,-9.4 z"
         id="path3478"
         inkscape:connector-curvature="0"
         style="fill:#ffffff" />
      <path
         d="m 33.9,13.6 1.5,1.5 -7.8,7.9 7.9,7.9 -1.6,1.5 -9.4,-9.4 9.4,-9.4 z"
         id="path3480"
         inkscape:connector-curvature="0"
         style="fill:#ffffff" />
    </svg>
    <svg
       height="17.200001"
       viewBox="0 0 32 18"
       width="31.299999"
       x="184"
       y="133"
       id="svg3482"
       version="1.1"
       inkscape:version="0.91 r13725">
      <circle
         cx="15.6"
         cy="8.6000004"
         r="2.0999999"
         id="circle3484"
         style="fill:#ffffff" />
      <path
         d="M 30.7,8.1 C 27.6,3.6 22,0.7 15.9,0.7 c -0.1,0 -0.2,0 -0.3,0 -0.1,0 -0.2,0 -0.3,0 -6,0 -11.7,2.9 -14.7,7.4 L 0.2,8.6 0.6,9.1 c 3.1,4.5 8.7,7.4 14.8,7.4 0.1,0 0.2,0 0.3,0 0.1,0 0.2,0 0.3,0 6.1,-0.1 11.7,-2.9 14.8,-7.4 L 31,8.6 30.7,8.1 Z m -15.1,6.5 c -3.4,0 -6.2,-2.7 -6.2,-6 0,-3.3 2.8,-6 6.2,-6 3.4,0 6.2,2.7 6.2,6 0,3.3 -2.8,6 -6.2,6 z M 2.5,8.6 C 4.1,6.5 6.4,4.8 9.1,3.8 8,5.1 7.4,6.8 7.4,8.6 c 0,1.8 0.7,3.5 1.7,4.8 -2.7,-1 -5,-2.6 -6.6,-4.8 z m 19.6,4.9 c 1.1,-1.3 1.7,-3 1.7,-4.8 0,-1.8 -0.7,-3.5 -1.7,-4.8 2.6,1 4.9,2.7 6.6,4.8 -1.6,2.1 -3.9,3.7 -6.6,4.8 z"
         id="path3486"
         inkscape:connector-curvature="0"
         style="fill:#ffffff" />
    </svg>
    <svg
       height="17.200001"
       viewBox="0 0 32 18"
       width="31.299999"
       x="115"
       y="159"
       id="svg3488"
       version="1.1"
       inkscape:version="0.91 r13725">
      <circle
         cx="15.6"
         cy="8.6000004"
         r="2.0999999"
         id="circle3490"
         style="fill:#000000" />
      <path
         d="M 30.7,8.1 C 27.6,3.6 22,0.7 15.9,0.7 c -0.1,0 -0.2,0 -0.3,0 -0.1,0 -0.2,0 -0.3,0 -6,0 -11.7,2.9 -14.7,7.4 L 0.2,8.6 0.6,9.1 c 3.1,4.5 8.7,7.4 14.8,7.4 0.1,0 0.2,0 0.3,0 0.1,0 0.2,0 0.3,0 6.1,-0.1 11.7,-2.9 14.8,-7.4 L 31,8.6 30.7,8.1 Z m -15.1,6.5 c -3.4,0 -6.2,-2.7 -6.2,-6 0,-3.3 2.8,-6 6.2,-6 3.4,0 6.2,2.7 6.2,6 0,3.3 -2.8,6 -6.2,6 z M 2.5,8.6 C 4.1,6.5 6.4,4.8 9.1,3.8 8,5.1 7.4,6.8 7.4,8.6 c 0,1.8 0.7,3.5 1.7,4.8 -2.7,-1 -5,-2.6 -6.6,-4.8 z m 19.6,4.9 c 1.1,-1.3 1.7,-3 1.7,-4.8 0,-1.8 -0.7,-3.5 -1.7,-4.8 2.6,1 4.9,2.7 6.6,4.8 -1.6,2.1 -3.9,3.7 -6.6,4.8 z"
         id="path3492"
         inkscape:connector-curvature="0"
         style="fill:#000000" />
    </svg>
    <svg
       height="25"
       viewBox="0 0 31 25"
       width="31"
       x="5"
       y="210"
       id="svg3494"
       version="1.1"
       inkscape:version="0.91 r13725">
      <g
         id="g3496">
        <path
           d="M 0.1,12.8 7,0.4 l 5.3,0 -4.9,12.4 4.5,0 0,11.8 -11.8,0 0,-11.8 z m 18.6,0 6.9,-12.4 5.3,0 -4.9,12.4 4.5,0 0,11.8 -11.8,0 0,-11.8 z"
           id="path3498"
           inkscape:connector-curvature="0"
           style="fill:#ffffff" />
      </g>
    </svg>
    <svg
       height="25"
       viewBox="0 0 31 25"
       width="31"
       x="41"
       y="210"
       id="svg3500"
       version="1.1"
       inkscape:version="0.91 r13725">
      <g
         id="g3502">
        <path
           d="M 0.1,12.8 7,0.4 l 5.3,0 -4.9,12.4 4.5,0 0,11.8 -11.8,0 0,-11.8 z m 18.6,0 6.9,-12.4 5.3,0 -4.9,12.4 4.5,0 0,11.8 -11.8,0 0,-11.8 z"
           id="path3504"
           inkscape:connector-curvature="0" />
      </g>
    </svg>
    <svg
       height="25"
       viewBox="0 0 31 25"
       width="31"
       x="77"
       y="210"
       id="svg3506"
       version="1.1"
       inkscape:version="0.91 r13725">
      <g
         id="g3508">
        <path
           d="m 12.4,12.2 -7,12.4 -5.3,0 4.9,-12.4 -4.5,0 0,-11.8 11.8,0 0,11.8 z m 18.5,0 -6.9,12.4 -5.3,0 4.9,-12.4 -4.5,0 0,-11.8 11.8,0 0,11.8 z"
           id="path3510"
           inkscape:connector-curvature="0"
           style="fill:#ffffff" />
      </g>
    </svg>
    <svg
       height="25"
       viewBox="0 0 31 25"
       width="31"
       x="113"
       y="210"
       id="svg3512"
       version="1.1"
       inkscape:version="0.91 r13725">
      <g
         id="g3514">
        <path
           d="m 12.4,12.2 -7,12.4 -5.3,0 4.9,-12.4 -4.5,0 0,-11.8 11.8,0 0,11.8 z m 18.5,0 -6.9,12.4 -5.3,0 4.9,-12.4 -4.5,0 0,-11.8 11.8,0 0,11.8 z"
           id="path3516"
           inkscape:connector-curvature="0" />
      </g>
    </svg>
    <svg
       height="25"
       viewBox="0 0 25 25"
       width="25"
       x="149"
       y="210"
       id="svg3518"
       version="1.1"
       inkscape:version="0.91 r13725">
      <defs
         id="defs3348" />
      <g
         transform="matrix(0.27121977,0,0,0.27121977,-0.88977756,-1.016128)"
         id="g3338">
        <path
           id="path3340"
           d="m 21.207,39.091 c 0,0.174 0,0.336 0,0.511 0.395,0.278 1.323,0.186 1.161,-0.511 -0.221,-0.187 -0.952,-0.187 -1.161,0 z"
           inkscape:connector-curvature="0" />
        <path
           id="path3523"
           d="m 82.124,64.929 c 0.012,-0.371 0.186,-0.545 0.104,-0.998 0.674,-0.487 0.615,-1.068 0.882,-2.078 0.396,-1.485 2.183,-4.016 0.662,-5.153 -0.558,0.511 -0.162,0.917 -0.441,1.428 -0.452,0.848 -1.694,0.952 -2.193,1.648 -0.546,0.766 -0.72,2.159 -0.325,2.855 -0.801,0.894 -1.288,2.274 -0.558,3.609 1.011,-0.046 1.312,-0.812 1.869,-1.311 z"
           inkscape:connector-curvature="0" />
        <path
           id="path3344"
           d="M 92.037,33.937 C 89.75,27.948 86.233,22.565 81.776,18.125 73.731,10.109 62.67,5.123 50.436,5.002 c -0.151,0 -0.29,-0.006 -0.43,-0.006 -8.091,0 -15.671,2.147 -22.229,5.873 -9.542,5.438 -16.901,14.257 -20.441,24.832 -1.497,4.457 -2.321,9.228 -2.333,14.185 0,0.046 0,0.069 0,0.115 0,2.658 0.244,5.271 0.685,7.812 0.615,3.517 1.637,6.883 3.019,10.075 6.87,15.822 22.553,26.919 40.857,27.105 0.151,0 0.29,0.011 0.441,0.011 8.067,0 15.624,-2.136 22.171,-5.85 13.627,-7.73 22.82,-22.368 22.82,-39.153 C 94.997,44.337 93.94,38.928 92.037,33.937 Z M 63.761,85.822 c -0.673,-0.081 -0.882,-0.429 -1.474,-0.104 0.022,-0.58 -1.011,-0.104 -1.057,-0.638 -1.672,0.221 -3.238,0.395 -4.504,1.056 -0.464,0.244 -0.801,0.743 -1.266,0.848 -0.312,0.058 -0.754,-0.15 -1.056,-0.104 -0.929,0.116 -2.473,1.393 -3.563,1.579 -0.499,0.069 -1.01,-0.07 -1.591,0 -0.127,0.058 -0.278,0.104 -0.418,0.162 -3.354,-0.104 -6.593,-0.627 -9.669,-1.532 0.081,-0.128 0.174,-0.255 0.116,-0.534 -1.66,-0.998 -2.832,-2.483 -4.411,-3.575 -0.034,-0.801 0.639,-0.894 1.266,-1.044 -0.418,-0.999 -2.612,-0.569 -2.519,0.835 0.022,0.477 0.359,0.441 0.417,1.057 -0.476,-0.221 -0.545,-0.859 -1.16,-0.94 0.29,-0.197 0.243,-0.72 -0.209,-0.743 -0.487,-0.093 -0.197,0.581 -0.418,0.743 -0.522,0 -0.511,-0.116 -0.94,0 0.047,0.65 0.905,0.871 1.358,0.522 0.221,0.371 0.221,0.569 0,0.952 0.395,0.58 1.369,0.522 1.996,0.406 0.209,0.034 -0.022,-0.29 -0.104,-0.313 0.221,-0.278 0.465,0.302 0.522,0.534 -0.313,0.139 -0.639,0.209 -0.951,0.243 -1.104,-0.499 -2.171,-1.045 -3.216,-1.637 -0.116,-0.255 -0.395,-0.359 -0.708,-0.418 l 0,0 c -0.221,-0.116 -0.43,-0.255 -0.639,-0.383 0,0 0,0 0,-0.012 -0.012,0 -0.012,0 -0.034,-0.012 -2.821,-1.764 -5.387,-3.877 -7.661,-6.291 -0.07,-0.14 -0.175,-0.255 -0.302,-0.313 C 15.228,69.283 11.363,60.09 11.363,50.002 c 0,-3.842 0.557,-7.544 1.602,-11.05 0.15,0.441 0.128,1.057 0.487,1.288 0.639,-0.383 -0.081,-1.462 -0.186,-2.217 0,-0.023 0.012,-0.058 0.023,-0.081 0.243,0.673 0.812,1.276 0.998,1.984 0.104,0.406 -0.14,0.686 -0.104,1.045 0.128,1.254 1.103,1.394 2.205,2.217 0.522,0.128 0.441,-0.324 0.836,-0.312 0.302,1.404 2.356,1.079 2.426,2.716 0.209,0.348 0.697,0.418 0.72,0.951 0.558,-0.104 0.499,0.406 1.161,0.43 0.197,-0.162 0.023,-0.685 0.418,-0.639 0.534,0.453 0.568,1.405 0.522,2.415 -0.384,0.963 -1.684,2.345 -0.731,3.366 -0.812,0.836 0.046,2.193 0.731,2.519 0.406,1.532 1.01,2.844 1.892,3.877 0.883,0.186 1.23,0.882 1.684,1.475 0.012,2.229 0.302,4.155 0.522,6.094 0.139,1.057 -0.244,2.112 -0.197,3.146 0.058,1.428 1.114,2.356 0.939,3.889 -0.174,0.012 -0.406,-0.047 -0.418,0.104 -0.174,0.639 0.406,0.499 0.522,0.848 0.453,1.497 0.767,3.146 2.206,3.668 0.325,0.046 0.081,-0.488 0.325,-0.511 0.104,-0.279 0.034,0.894 -0.313,0.836 0.452,0.661 1.856,1.032 2.728,0.73 -0.929,-0.673 -1.788,-1.428 -2.311,-2.519 0.303,-0.464 0.569,-0.975 0.836,-1.463 -0.058,-0.511 -0.592,-0.522 -0.836,-0.847 -0.093,-0.441 0.465,-0.232 0.627,-0.418 -0.162,-0.151 -0.093,-0.534 -0.104,-0.848 0.128,-0.14 0.511,-0.035 0.522,-0.313 0.047,-0.522 -0.836,-0.14 -0.731,-0.731 0.268,0.093 0.558,0.14 0.94,0.104 0.174,-0.359 0,-0.696 0,-1.044 1.556,0.533 2.438,-0.639 1.684,-1.788 0.302,0.012 0.685,-0.058 0.847,0.104 1.23,-0.72 1.637,-2.275 2.52,-3.366 0.034,-0.487 -0.197,-0.72 -0.104,-1.254 0.395,-0.649 1.242,-0.847 1.775,-1.369 0.477,-0.047 0.895,0.15 1.266,0 0.963,-0.384 1.358,-3.354 1.161,-5.038 0.395,-0.313 2.414,-2.391 1.984,-3.575 -0.464,-1.3 -3.319,-2.635 -5.246,-2.414 -0.488,-1.126 -1.765,-0.976 -2.729,-1.475 -0.359,-1.88 -1.138,-3.343 -3.575,-3.146 -0.476,-1.045 -1.961,-1.463 -2.101,-2.519 -0.674,-0.081 -1.138,0.047 -1.358,0.418 -0.395,-0.256 -0.592,-0.14 -1.16,-0.104 -0.187,-0.383 -0.593,-0.522 -0.731,-0.94 -0.487,0 -0.441,0.349 -0.639,-0.116 -0.87,0.395 -1.741,0.778 -1.996,1.787 -0.384,-0.197 -1.23,-0.464 -1.881,0 -1.126,-0.916 0.696,-4.085 -1.996,-3.261 0.197,-0.871 0.568,-1.591 0.73,-2.508 -0.127,-0.093 -0.255,-0.139 -0.359,-0.186 0.302,-0.383 0.801,-0.557 1.556,-0.487 0,-1.451 -1.567,-1.475 -2.705,-1.149 -0.186,-0.337 -0.627,-0.731 -1.149,-1.079 0.256,-0.418 0.604,-0.731 1.08,-0.883 0.511,-0.046 0.522,0.395 0.952,0.418 0.278,-0.104 0.348,-0.43 0.312,-0.847 0.802,-0.163 0.895,0.186 1.579,0 0.093,0.882 0.278,1.694 0.627,2.31 1.184,-1.045 -0.163,-2.855 0.627,-4.086 0.58,-0.894 1.671,-0.894 1.996,-1.996 0.059,-0.349 -0.069,-0.488 -0.104,-0.731 0.627,-0.395 0.812,-1.23 1.161,-1.904 0.673,-0.231 0.858,-0.951 1.566,-1.148 0.14,-0.418 -0.336,-0.209 -0.209,-0.627 0.302,-0.674 1.22,-0.755 1.684,-1.254 0.14,0.162 -0.093,0.615 0.209,0.836 0.673,-0.476 1.567,-0.743 2.205,-1.266 0.093,-0.464 -0.186,-0.58 -0.522,-0.627 0.012,-0.302 0.441,-0.186 0.418,-0.521 -0.069,-0.372 -0.801,-0.116 -1.044,-0.313 0.081,-0.932 0.975,-0.418 1.566,-0.836 0.104,-0.525 -0.661,-0.183 -0.836,-0.427 0.65,-0.36 1.8,-0.232 1.893,-1.161 0.94,-0.139 1.428,-0.736 1.671,-1.572 -0.046,-0.54 -0.812,-0.36 -0.73,-1.051 -0.384,0.035 -0.686,-0.018 -0.94,-0.099 -0.244,-1.021 -0.511,-2.014 -0.848,-2.948 -0.302,0.041 -0.487,0.191 -0.639,0.383 -0.022,-0.012 -0.034,-0.029 -0.058,-0.035 -0.104,0.14 -0.349,0.094 -0.546,-0.028 2.275,-1.358 4.701,-2.49 7.255,-3.366 0.116,0.15 0.244,0.296 0.499,0.319 -0.197,0.435 -0.209,0.615 0.104,0.939 0.43,0.082 0.604,-0.099 0.952,-0.099 0.209,0.14 0.267,0.436 0.522,0.522 0.801,-0.493 1.903,-1.213 1.578,-2.205 0.256,-0.128 0.396,-0.383 0.511,-0.662 2.717,-0.604 5.525,-0.923 8.416,-0.923 4.353,0 8.531,0.731 12.443,2.061 -0.349,1.01 0.069,2.728 0.998,2.885 0.72,0.122 0.894,-0.447 1.684,-0.627 0.162,0.737 0.627,1.189 1.044,1.678 0.023,0.517 -0.777,0.203 -0.626,0.841 0.209,0.645 1.647,0.662 2.101,0.418 0.128,-0.923 0.081,-2.014 0.848,-2.31 0.012,-0.093 0.012,-0.174 0,-0.238 0.731,0.4 1.439,0.824 2.136,1.271 0.116,0.342 0.476,0.568 0.487,1.073 -0.499,0.029 -0.325,-0.598 -0.848,-0.528 -0.685,0.215 -0.499,1.312 -0.836,1.893 -1.265,-0.465 -2.402,0.54 -3.459,-0.424 0.325,-0.708 -0.464,-0.667 -0.742,-1.051 0.278,-0.754 0.313,-1.103 0,-1.886 -1.405,0.075 -1.219,1.59 -0.731,2.519 -0.465,0.041 -1.23,0.012 -1.788,0.215 -0.359,0.412 -0.418,1.126 -1.265,1.051 -0.325,-0.29 0.359,-0.522 0,-0.848 -0.151,-0.203 -0.534,-0.156 -0.731,-0.313 -0.023,-0.72 -0.43,-1.045 -0.952,-1.265 0.081,-0.39 0.14,-0.743 -0.418,-0.731 -0.069,-0.447 0.337,-0.424 0.313,-0.842 -0.069,-0.267 -0.336,-0.365 -0.731,-0.313 -0.093,-0.296 0.151,-0.272 0.104,-0.522 -0.174,-0.18 -0.615,-0.087 -0.951,-0.11 -0.499,0.308 -0.418,1.185 -0.836,1.579 -0.047,0.331 0.511,0.034 0.418,0.418 0.069,0.418 -0.499,0.133 -0.522,0 -0.685,0.272 -0.859,0.853 -1.684,0.736 0.094,0.401 0.14,0.848 0.104,1.364 0.268,0.267 0.743,0.313 0.94,0.633 0.627,-0.128 1.08,-0.389 1.37,-0.848 0,-0.313 0,-0.627 0,-0.94 0.255,-0.093 0.464,-0.249 0.848,-0.209 -0.104,0.412 0.312,0.313 0.208,0.726 -0.255,-0.006 -0.511,-0.012 -0.626,0.11 -0.082,0.395 0.174,0.447 0.104,0.842 -0.268,-0.018 -0.511,-0.018 -0.627,0.11 0.022,0.272 0.243,0.371 0.627,0.313 -0.047,0.436 -0.5,0.481 -0.627,0.836 0.731,0.249 1.973,0.093 2.623,-0.104 -0.209,0.522 0.337,0.278 0.313,0.627 -1.033,-0.528 -1.068,0.423 -2.31,0.214 -0.151,0.134 -0.104,0.453 -0.104,0.737 0.928,0.482 2.298,1.033 1.671,2.72 -1.474,0.243 -3.122,-0.812 -3.981,0.115 0.615,1.277 -0.139,2.543 0.104,3.784 0.627,0.163 1.532,0.059 1.881,0.511 -0.313,0.291 -0.627,0.569 -0.627,1.161 -1.544,0.349 -1.335,2.461 -2.31,3.366 -1.893,0.708 -2.392,2.798 -3.471,4.295 0.905,0.917 0.476,2.972 -0.104,3.9 0.162,0.359 0.44,0.604 0.313,1.253 0.312,0.5 0.858,0.755 1.369,1.057 0.731,1.66 1.556,3.784 3.354,3.981 0.79,0.093 1.196,-0.592 1.893,-0.627 0.673,-0.023 0.87,0.476 1.578,0.522 1.08,-0.29 2.066,-1.23 3.157,-1.045 0.905,0.162 1.532,1.741 2.624,0.94 0.383,0.731 0.231,2.205 -0.116,2.832 0.406,1.358 1.428,2.09 1.683,3.575 1.985,1.404 -0.29,3.506 -0.104,5.363 0.093,0.928 0.929,1.625 1.057,2.623 0.232,1.95 0.824,3.378 1.787,4.828 0.012,0.303 -0.359,0.209 -0.209,0.627 0.406,1.637 2.136,-0.081 3.146,0.313 1.01,-0.638 2.182,-1.103 2.519,-2.414 1.347,-0.511 1.416,-2.299 2.101,-3.471 0.175,0 0.349,0 0.522,0 0.383,-0.558 0.418,-1.741 0,-2.299 0.477,-0.998 1.382,-1.566 2.206,-2.205 0.046,-1.323 0.557,-2.136 0.209,-3.157 -0.163,-0.487 -0.778,-0.731 -0.836,-1.161 -0.256,-1.659 1.927,-2.089 2.101,-3.877 0.278,-0.069 0.395,-0.302 0.627,-0.418 0.337,-1.845 1.637,-3.272 1.475,-5.258 -0.79,0.383 -1.765,0.477 -2.52,0.639 -0.278,-0.337 0.186,-0.592 0.313,-0.848 -0.858,-1.312 -2.611,-2.739 -2.31,-4.515 -0.696,-0.917 -1.475,-2.311 -1.579,-3.46 0.65,-0.139 0.859,1.011 1.057,1.672 0.093,0.43 0.557,0.499 0.731,0.848 0.093,1.938 1.578,2.473 1.671,4.411 0.418,0.324 0.36,1.114 0.952,1.253 0.418,0.07 0.302,-0.395 0.313,-0.731 1.126,-0.766 2.496,-1.276 3.459,-2.205 0,-0.777 0.487,-0.859 0.43,-1.475 -0.069,-0.673 -0.952,-0.917 -0.952,-1.671 0.546,0.046 0.917,0.267 1.416,0.371 1.138,3.634 1.741,7.487 1.741,11.479 0,15.59 -9.251,29.031 -22.554,35.125 -1.007,-0.046 -1.843,0.047 -2.33,0.696 z M 28.996,23.861 c -0.29,-0.093 0.093,-0.369 0.093,-0.525 0.406,0.053 0.522,-0.191 0.952,-0.104 -0.059,0.501 -0.767,0.354 -1.045,0.629 z m 0.523,1.254 c 0.243,0.034 0.43,0.127 0.627,0.22 -0.094,0.221 -0.767,0.14 -0.627,-0.22 z m -5.364,-1.779 c -0.359,-0.558 -0.127,-1.271 0,-1.892 0.012,-0.07 -0.023,-0.094 -0.069,-0.104 0.661,-0.599 1.347,-1.161 2.043,-1.719 -0.128,0.993 -0.894,1.353 -1.451,1.928 0.267,0.574 0.313,1.74 -0.523,1.787 z m -0.836,3.996 c -0.452,-0.406 -0.557,0.221 -0.626,0.522 -0.104,-0.313 -0.256,-0.592 -0.325,-0.952 0.325,0.151 0.383,-0.046 0.847,0 -0.011,0.198 0.128,0.221 0.104,0.43 z M 21.01,26.38 c 0.151,-0.197 0.441,-0.255 0.522,-0.522 0.337,0.093 0.546,0.29 0.522,0.731 -0.36,-0.081 -0.395,0.163 -0.731,0.104 0.116,-0.325 0.105,-0.337 -0.313,-0.313 z m -0.314,0.43 c -0.186,-0.081 -0.012,-0.197 0,-0.325 0.186,0.08 0.012,0.185 0,0.325 z m -2.449,11.63 c -0.023,0.244 0.151,0.29 0.128,0.522 -0.36,-0.023 -0.696,-0.012 -0.639,0.383 0.232,0.615 0.848,0.325 1.3,0.569 -0.812,0.104 -0.685,1.973 -2.02,1.706 -0.104,-0.313 -0.197,-0.662 -0.255,-1.01 0.116,-0.023 0.267,-0.047 0.464,-0.104 -0.116,-0.65 -0.371,-0.812 -0.592,-0.755 -0.023,-0.302 -0.012,-0.615 0.012,-0.917 0.697,0.036 1.08,-0.254 1.602,-0.394 z m 6.547,6.628 c -0.012,-0.255 0.162,-0.313 0.209,-0.522 0.383,0.081 0.128,0.569 -0.209,0.522 z m 60.383,-7.765 c -0.336,0.511 -0.464,1.207 -1.369,1.161 -0.232,-0.29 -0.302,-0.755 -0.313,-1.266 -0.197,-0.197 -0.384,-0.034 -0.627,0 -0.174,-0.673 -0.604,-1.079 -0.639,-1.892 1.138,0.313 0.894,1.973 2.008,2.31 0.452,0.035 0.534,-0.302 0.94,-0.313 z m -2.844,-8.474 c 0,0.023 0,0.047 0.012,0.07 0.081,0.115 0.174,0.231 0.256,0.348 0.046,0.069 0.081,0.14 0.115,0.197 0.256,0.395 0.453,0.836 0.465,1.451 -1.591,0.069 -2.206,-1.161 -1.672,-2.623 -0.673,-0.674 -1.3,-1.684 -1.566,-2.693 0.846,1.033 1.647,2.124 2.39,3.25 z m -11.225,4.794 c -1.66,-0.58 -2.6,-1.88 -4.202,-2.519 0.244,-0.859 -0.487,-1.01 -0.209,-1.579 -0.313,-0.116 -0.615,-0.22 -0.847,-0.418 -0.313,0.035 -0.465,0.232 -0.731,0.325 -1.312,-0.162 -2.473,-0.278 -3.68,0 -1.126,0.244 -2.264,1.149 -3.354,0.209 1.357,-0.081 2.321,-0.43 3.041,-1.16 -0.232,-1.776 1.335,-1.753 1.578,-3.053 0.999,0.371 1.765,0.104 2.52,-0.313 0.848,1.323 2.763,1.578 3.146,3.366 -0.546,0.093 -1.021,0.267 -1.567,-0.104 -0.197,0.615 0.488,1.172 0.836,1.578 0.325,0.081 0.383,-0.116 0.627,-0.104 0.047,-0.371 -0.035,-0.592 -0.104,-0.848 0.313,0 0.534,0.313 0.743,0.116 0.058,-0.324 0.29,-0.487 0.627,-0.533 0.069,-0.384 -0.232,-0.406 -0.209,-0.731 0.348,0 0.511,0.499 0.835,0.209 0.035,-0.94 -0.998,-0.824 -1.148,-1.579 0.627,-0.186 0.824,0.081 1.253,0.325 0.256,1.729 0.895,3.088 2.311,3.668 0.174,0.081 0.174,-0.487 0,-0.418 0.104,-0.325 0.29,0.116 0.418,0.104 0.255,0.035 -0.059,-0.476 0.324,-0.313 -0.267,-0.836 -0.429,-1.138 -0.429,-2.205 0.824,0 0.754,1.276 0.742,1.787 0.488,0.674 1.208,1.625 2.415,1.254 0.371,-0.023 0.336,0.359 0.627,0.418 0.452,0 0.673,-0.244 1.16,-0.209 -0.116,0.998 -0.023,1.787 -0.209,2.832 -2.055,-0.162 -4.062,-0.325 -5.142,-1.671 -0.313,0.312 -1.207,0.058 -1.475,0.406 -0.082,0.511 0.162,0.684 0.103,1.16 z m -9.982,-13.02 c 0.325,-0.151 0.15,0.609 -0.104,0.522 -0.047,-0.25 0.185,-0.227 0.104,-0.522 z m 13.546,6.729 c -0.197,-0.256 -0.359,-0.546 -0.627,-0.743 0.337,-0.534 0.558,-1.184 0.94,-1.683 0.499,-0.035 0.476,0.429 1.057,0.313 -0.128,0.312 -0.035,0.359 0.093,0.638 0.464,-0.231 0.94,0.012 1.381,0.104 0.082,-0.406 -0.231,-0.406 -0.429,-0.533 0.162,-0.209 0.742,-0.023 0.951,-0.209 -0.034,0.243 0.023,0.406 0.209,0.429 0.012,0.221 -0.371,0.047 -0.522,0.093 0.07,0.221 0.197,0.372 0.337,0.522 -0.151,0.012 -0.302,0.035 -0.441,0.104 -0.058,0.755 0.372,0.999 0.778,1.277 0.255,-0.209 0.708,-0.221 0.963,-0.441 0.268,0.209 0.477,0.465 0.558,0.859 -1.882,0.047 -2.961,-1.369 -5.248,-0.73 z"
           inkscape:connector-curvature="0" />
      </g>
    </svg>
    <svg
       height="24"
       viewBox="0 0 24 24"
       width="24"
       x="179"
       y="210"
       id="svg3526"
       version="1.1"
       inkscape:version="0.91 r13725">
      <g
         id="g3528">
        <path
           d="M 24,2.5 14.5,12 24,21.5 21.5,24 12,14.5 2.5,24 0,21.5 9.5,12 0,2.5 2.5,0 12,9.5 21.5,0 24,2.5 Z"
           id="path3530"
           inkscape:connector-curvature="0"
           style="fill:#ffffff" />
      </g>
    </svg>
    <svg
       height="20"
       viewBox="0 0 20 20"
       width="20"
       x="115"
       y="182"
       id="svg3532"
       version="1.1"
       inkscape:version="0.91 r13725">
      <path
         d="M 18,0 2,0 C 0.9,0 0,0.9 0,2 l 0,16 c 0,1.1 0.9,2 2,2 l 16,0 c 1.1,0 2,-0.9 2,-2 L 20,2 C 20,0.9 19.1,0 18,0 Z m -3,5 -1.4,0 c -1.1,0 -1.1,0.9 -1.1,1.6 l 0,2.1 2.4,0 -0.3,2.5 -2.1,0 0,6.2 -2.5,0 0,-6.2 -2.5,0 0,-2.4 2.5,0 0,-2.4 C 10,4.2 11.2,3 13.2,3 14.1,2.9 15,3 15,3 l 0,2 z"
         id="path3534"
         inkscape:connector-curvature="0"
         style="fill:#ffffff" />
    </svg>
    <svg
       height="20"
       viewBox="0 0 20 20"
       width="20"
       x="140"
       y="182"
       id="svg3536"
       version="1.1"
       inkscape:version="0.91 r13725">
      <path
         d="m 17.1,0 c 0.8,0 1.5,0.3 2.1,0.9 0.5,0.5 0.8,1.2 0.8,2 l 0,14.2 c 0,0.8 -0.3,1.5 -0.9,2.1 -0.6,0.6 -1.3,0.9 -2.1,0.9 l -14.1,0 C 2.1,20.1 1.4,19.8 0.8,19.2 0.2,18.6 0,17.9 0,17.1 L 0,2.9 C 0,2.1 0.3,1.4 0.9,0.8 1.5,0.2 2.1,0 2.9,0 2.9,0 17.1,0 17.1,0 Z M 10,6.2 C 9,6.2 8.1,6.6 7.3,7.3 6.5,8 6.3,9 6.3,10 c 0,1 0.4,1.9 1.1,2.7 0.7,0.7 1.6,1.1 2.7,1.1 1,0 1.9,-0.4 2.7,-1.1 C 13.5,12 13.9,11.1 13.9,10 13.9,8.9 13.5,8.1 12.8,7.3 11.9,6.6 11,6.2 10,6.2 Z m 7.9,11.3 0,-8.8 -2.2,0 c 0.1,0.4 0.1,0.8 0.1,1.2 0,1.1 -0.3,2 -0.8,2.9 -0.5,0.9 -1.2,1.6 -2.1,2.1 C 12,15.4 11,15.7 10,15.7 9,15.7 8,15.6 7.1,15 6.2,14.5 5.5,13.8 5,12.9 4.4,12 4.2,11.1 4.2,10 4.2,9.6 4.2,9.1 4.3,8.8 l -2.2,0 0,8.7 c 0,0.1 0,0.2 0.1,0.3 0.1,0.1 0.2,0.1 0.3,0.1 l 15,0 c 0.1,0 0.2,0 0.3,-0.1 0.1,-0.1 0.1,-0.2 0.1,-0.3 l 0,0 z m 0,-12.5 0,-2.5 c 0,-0.1 0,-0.2 -0.1,-0.3 C 17.7,2.1 17.6,2.1 17.5,2.1 l -2.5,0 c -0.1,0 -0.2,0 -0.3,0.1 -0.1,0.1 -0.1,0.2 -0.1,0.3 l 0,2.5 c 0,0.1 0,0.2 0.1,0.3 0.1,0.1 0.2,0.1 0.3,0.1 l 2.5,0 c 0.1,0 0.2,0 0.3,-0.1 0.1,-0.1 0.1,-0.2 0.1,-0.3 z"
         id="path3538"
         inkscape:connector-curvature="0"
         style="fill:#000000" />
    </svg>
    <svg
       height="20"
       viewBox="0 0 20 20"
       width="20"
       x="165"
       y="182"
       id="svg3540"
       version="1.1"
       inkscape:version="0.91 r13725">
      <path
         d="m 20,3.6 c -0.5,0.8 -1.2,1.5 -2,2.1 l 0,0.5 c 0,0.9 -0.1,1.8 -0.3,2.7 -0.2,0.9 -0.6,1.8 -1,2.7 -0.4,0.9 -1,1.7 -1.7,2.4 -0.7,0.8 -1.4,1.4 -2.3,2 -0.8,0.6 -1.8,1 -2.9,1.3 -1.1,0.3 -2.3,0.5 -3.5,0.5 -2.5,0 -4.6,-0.6 -6.3,-1.7 0.3,0 0.6,0.1 1,0.1 0.9,0 1.8,-0.2 2.7,-0.5 C 4.6,15.4 5.4,14.9 6.1,14.3 5.2,14.3 4.4,14 3.7,13.5 3,13 2.5,12.3 2.3,11.5 c 0.3,0.1 0.5,0.1 0.8,0.1 0.4,0 0.7,0 1.1,-0.1 C 3.3,11.3 2.5,10.8 1.8,10.1 1.1,9.4 0.8,8.4 0.8,7.4 l 0,0 C 1.4,7.7 2,7.9 2.7,7.9 2.1,7.5 1.6,7 1.3,6.4 1,5.8 0.8,5.2 0.8,4.5 0.8,3.8 1,3.2 1.4,2.5 c 1,1.3 2.3,2.2 3.7,3 1.5,0.7 3,1.1 4.7,1.2 C 9.8,6.5 9.7,6.1 9.7,5.8 9.7,4.7 10.1,3.7 10.9,2.9 11.7,2.1 12.7,1.7 13.8,1.7 15,1.7 16,2.1 16.8,3 17.7,2.8 18.6,2.5 19.4,2 19.1,3 18.5,3.7 17.6,4.3 18.4,4.1 19.2,3.9 20,3.6 l 0,0 z"
         id="path3542"
         inkscape:connector-curvature="0"
         style="fill:#000000" />
    </svg>
    <svg
       height="20"
       viewBox="0 0 20 20"
       width="20"
       x="190"
       y="182"
       id="svg3544"
       version="1.1"
       inkscape:version="0.91 r13725">
      <path
         d="M 18,0 2,0 C 0.9,0 0,0.9 0,2 l 0,16 c 0,1.1 0.9,2 2,2 l 16,0 c 1.1,0 2,-0.9 2,-2 L 20,2 C 20,0.9 19.1,0 18,0 Z m -3,5 -1.4,0 c -1.1,0 -1.1,0.9 -1.1,1.6 l 0,2.1 2.4,0 -0.3,2.5 -2.1,0 0,6.2 -2.5,0 0,-6.2 -2.5,0 0,-2.4 2.5,0 0,-2.4 C 10,4.2 11.2,3 13.2,3 14.1,2.9 15,3 15,3 l 0,2 z"
         id="path3546"
         inkscape:connector-curvature="0"
         style="fill:#000000" />
    </svg>
    <svg
       height="20"
       viewBox="0 0 20 20"
       width="20"
       x="215"
       y="182"
       id="svg3548"
       version="1.1"
       inkscape:version="0.91 r13725">
      <path
         d="m 20,3.6 c -0.5,0.8 -1.2,1.5 -2,2.1 l 0,0.5 c 0,0.9 -0.1,1.8 -0.3,2.7 -0.2,0.9 -0.6,1.8 -1,2.7 -0.4,0.9 -1,1.7 -1.7,2.4 -0.7,0.8 -1.4,1.4 -2.3,2 -0.8,0.6 -1.8,1 -2.9,1.3 -1.1,0.3 -2.3,0.5 -3.5,0.5 -2.5,0 -4.6,-0.6 -6.3,-1.7 0.3,0 0.6,0.1 1,0.1 0.9,0 1.8,-0.2 2.7,-0.5 C 4.6,15.4 5.4,14.9 6.1,14.3 5.2,14.3 4.4,14 3.7,13.5 3,13 2.5,12.3 2.3,11.5 c 0.3,0.1 0.5,0.1 0.8,0.1 0.4,0 0.7,0 1.1,-0.1 C 3.3,11.3 2.5,10.8 1.8,10.1 1.1,9.4 0.8,8.4 0.8,7.4 l 0,0 C 1.4,7.7 2,7.9 2.7,7.9 2.1,7.5 1.6,7 1.3,6.4 1,5.8 0.8,5.2 0.8,4.5 0.8,3.8 1,3.2 1.4,2.5 c 1,1.3 2.3,2.2 3.7,3 1.5,0.7 3,1.1 4.7,1.2 C 9.8,6.5 9.7,6.1 9.7,5.8 9.7,4.7 10.1,3.7 10.9,2.9 11.7,2.1 12.7,1.7 13.8,1.7 15,1.7 16,2.1 16.8,3 17.7,2.8 18.6,2.5 19.4,2 19.1,3 18.5,3.7 17.6,4.3 18.4,4.1 19.2,3.9 20,3.6 l 0,0 z"
         id="path3550"
         inkscape:connector-curvature="0"
         style="fill:#ffffff" />
    </svg>
    <svg
       height="20"
       viewBox="0 0 20 20"
       width="20"
       x="208"
       y="210"
       id="svg3552"
       version="1.1"
       inkscape:version="0.91 r13725">
      <path
         d="m 20,3.6 c -0.5,0.8 -1.2,1.5 -2,2.1 l 0,0.5 c 0,0.9 -0.1,1.8 -0.3,2.7 -0.2,0.9 -0.6,1.8 -1,2.7 -0.4,0.9 -1,1.7 -1.7,2.4 -0.7,0.8 -1.4,1.4 -2.3,2 -0.8,0.6 -1.8,1 -2.9,1.3 -1.1,0.3 -2.3,0.5 -3.5,0.5 -2.5,0 -4.6,-0.6 -6.3,-1.7 0.3,0 0.6,0.1 1,0.1 0.9,0 1.8,-0.2 2.7,-0.5 C 4.6,15.4 5.4,14.9 6.1,14.3 5.2,14.3 4.4,14 3.7,13.5 3,13 2.5,12.3 2.3,11.5 c 0.3,0.1 0.5,0.1 0.8,0.1 0.4,0 0.7,0 1.1,-0.1 C 3.3,11.3 2.5,10.8 1.8,10.1 1.1,9.4 0.8,8.4 0.8,7.4 l 0,0 C 1.4,7.7 2,7.9 2.7,7.9 2.1,7.5 1.6,7 1.3,6.4 1,5.8 0.8,5.2 0.8,4.5 0.8,3.8 1,3.2 1.4,2.5 c 1,1.3 2.3,2.2 3.7,3 1.5,0.7 3,1.1 4.7,1.2 C 9.8,6.5 9.7,6.1 9.7,5.8 9.7,4.7 10.1,3.7 10.9,2.9 11.7,2.1 12.7,1.7 13.8,1.7 15,1.7 16,2.1 16.8,3 17.7,2.8 18.6,2.5 19.4,2 19.1,3 18.5,3.7 17.6,4.3 18.4,4.1 19.2,3.9 20,3.6 l 0,0 z"
         id="path3554"
         inkscape:connector-curvature="0"
         style="fill:#55acee" />
    </svg>
    <svg
       height="20"
       viewBox="0 0 20 20"
       width="20"
       x="246"
       y="5"
       id="svg3556"
       version="1.1"
       inkscape:version="0.91 r13725">
      <path
         d="m 10,2.9 c 3,0 5,0 6,0.1 1.4,0.1 2.3,0.4 2.9,0.8 0.5,0.4 0.8,1.1 1,2 0,0.7 0.1,2 0.1,3.9 l 0,0.3 c 0,2 0,3.3 -0.1,3.9 -0.1,1 -0.4,1.7 -0.9,2.1 -0.5,0.5 -1.4,0.8 -2.7,0.9 -1,0.1 -2.9,0.2 -5.8,0.2 l -0.5,0 C 7,17.1 5,17.1 4,17 2.6,16.9 1.7,16.6 1.1,16.2 0.6,15.8 0.3,15.1 0.1,14.2 0.1,13.5 0,12.2 0,10.3 L 0,10 C 0,8 0,6.7 0.1,6.1 0.2,5.1 0.5,4.4 1,4 1.5,3.5 2.4,3.2 3.7,3.1 4.7,3 6.6,2.9 9.5,2.9 c 0.1,0 0.5,0 0.5,0 z M 7.5,13.7 13.7,10 7.5,6.2 l 0,7.5 0,0 z"
         id="path3558"
         inkscape:connector-curvature="0"
         style="fill:#ffffff" />
    </svg>
    <svg
       height="20"
       viewBox="0 0 20 20"
       width="20"
       x="246"
       y="30"
       id="svg3560"
       version="1.1"
       inkscape:version="0.91 r13725">
      <g
         id="g3562">
        <path
           d="M 11.4,7.3 C 11.2,7.1 10.9,7 10.6,7 10,6.9 9.5,7.3 9,8.1 8.5,8.9 8.3,9.6 8.3,10.4 c 0,0.4 0.1,0.8 0.3,1.1 0.2,0.3 0.5,0.4 0.9,0.4 0.6,0 1.2,-0.5 1.6,-1.5 0.4,-1 0.6,-1.7 0.6,-2.3 0,-0.3 -0.1,-0.6 -0.3,-0.8 z"
           id="path3564"
           inkscape:connector-curvature="0"
           style="fill:#000000" />
        <path
           d="M 18,0 2,0 C 0.9,0 0,0.9 0,2 l 0,16 c 0,1.1 0.9,2 2,2 l 16,0 c 1.1,0 2,-0.9 2,-2 L 20,2 C 20,0.9 19.1,0 18,0 Z M 10.8,12.5 C 10.3,13 9.7,13.2 9,13.2 8.3,13.2 7.7,12.9 7.2,12.4 6.7,11.9 6.5,11.1 6.5,10.2 6.5,9.1 6.9,8.1 7.6,7.1 c 0.7,-1 1.7,-1.4 2.7,-1.4 0.6,0 1.1,0.2 1.5,0.5 0.3,0.3 0.4,0.6 0.5,0.9 L 12.5,6 14.2,6 13,9.9 c -0.1,0.3 -0.2,0.6 -0.2,0.7 0,0.2 -0.1,0.3 -0.1,0.4 0,0.2 0.1,0.4 0.2,0.5 0.1,0.2 0.3,0.2 0.6,0.2 0.5,0 1,-0.3 1.6,-1 C 15.6,10 15.9,9.1 15.9,8 15.9,6.3 15.2,5.2 13.8,4.4 12.9,3.9 11.9,3.7 10.8,3.7 8.8,3.7 7.1,4.3 5.9,5.6 4.7,6.9 4.2,8.2 4.2,9.8 c 0,1.8 0.7,3.2 2,4.2 1.2,0.9 2.6,1.4 4.3,1.4 1.1,0 2.2,-0.2 3.2,-0.6 0.5,-0.2 1.1,-0.5 1.7,-0.9 l 0.2,-0.2 0.7,1 c -0.9,0.7 -1.8,1.2 -2.8,1.5 -1,0.3 -2,0.5 -3.1,0.5 C 7.9,16.7 6,15.9 4.6,14.4 3.3,13 2.8,11.5 2.8,9.7 2.8,7.7 3.5,6 4.9,4.7 6.4,3.2 8.3,2.5 10.6,2.5 c 1.9,0 3.5,0.5 4.7,1.5 1.3,1 2,2.4 2,4.2 0,1.4 -0.4,2.5 -1.2,3.5 -0.8,1 -1.8,1.5 -2.8,1.5 -0.6,0 -1,-0.2 -1.3,-0.5 -0.3,-0.3 -0.4,-0.6 -0.4,-1 0,0 0,-0.1 0,-0.1 0,-0.1 0,-0.1 0,-0.2 -0.3,0.5 -0.5,0.8 -0.8,1.1 z"
           id="path3566"
           inkscape:connector-curvature="0"
           style="fill:#000000" />
      </g>
    </svg>
    <svg
       height="20"
       viewBox="0 0 20 20"
       width="20"
       x="246"
       y="55"
       id="svg3568"
       version="1.1"
       inkscape:version="0.91 r13725">
      <path
         d="M 18,20 2,20 C 0.9,20 0,19.1 0,18 L 0,2 C 0,0.9 0.9,0 2,0 l 16,0 c 1.1,0 2,0.9 2,2 l 0,16 c 0,1.1 -0.9,2 -2,2 z"
         id="path3570"
         inkscape:connector-curvature="0"
         style="fill:#ffffff" />
      <path
         d="m 10.9,3.2 c 0.1,0 0.3,0 0.4,0.1 0.1,0.2 0.3,0.2 0.4,0.4 0.2,0.3 0.3,0.5 0.4,0.8 0.1,0.3 0.1,0.6 0.1,1 0,0.7 -0.2,1.2 -0.5,1.7 C 11.6,7.4 11.4,7.6 11.2,7.8 11,8 10.8,8.1 10.6,8.3 10.5,8.4 10.4,8.6 10.3,8.7 10.2,8.9 10.1,9 10.1,9.3 c 0,0.2 0.1,0.4 0.2,0.5 0.1,0.1 0.2,0.2 0.3,0.3 l 0.7,0.5 c 0.4,0.3 0.8,0.7 1.1,1.1 0.3,0.4 0.4,1 0.5,1.6 0,1 -0.4,1.8 -1.3,2.5 C 10.8,16.6 9.5,17 7.9,17 6.5,17 5.5,16.7 4.8,16.1 4.1,15.6 3.8,14.9 3.8,14.2 3.8,13.8 3.9,13.4 4.1,13 4.3,12.6 4.7,12.2 5.3,11.8 5.9,11.4 6.6,11.2 7.3,11.1 8,11 8.5,10.9 9,10.9 8.9,10.7 8.7,10.5 8.6,10.3 8.5,10.1 8.4,9.8 8.4,9.6 8.4,9.4 8.4,9.3 8.5,9.2 8.5,9.1 8.6,9 8.6,8.9 8.4,8.9 8.2,8.9 8,8.9 7,8.9 6.2,8.6 5.6,7.9 5,7.2 4.7,6.5 4.7,5.8 4.7,4.8 5.1,4 5.9,3.2 6.5,2.7 7,2.4 7.6,2.3 8.3,2.1 8.9,2 9.4,2 l 3.9,0 -1.2,1.2 -1.2,0 z M 11.6,14 c 0,-0.5 -0.2,-0.9 -0.5,-1.3 -0.3,-0.4 -0.9,-0.8 -1.6,-1.3 -0.1,0 -0.3,0 -0.4,0 -0.1,0 -0.4,0 -0.8,0 -0.4,0.1 -0.8,0.1 -1.2,0.3 -0.1,0 -0.2,0.1 -0.4,0.2 -0.2,0.1 -0.4,0.2 -0.6,0.4 -0.2,0.2 -0.3,0.4 -0.5,0.6 -0.1,0.2 -0.2,0.5 -0.2,0.9 0,0.7 0.3,1.3 0.9,1.7 0.6,0.4 1.4,0.7 2.4,0.7 0.9,0 1.6,-0.2 2.1,-0.6 0.6,-0.4 0.8,-0.9 0.8,-1.6 z M 8.9,8.3 c 0.5,0 0.9,-0.2 1.3,-0.6 0.2,-0.2 0.3,-0.5 0.3,-0.8 0,-0.3 0,-0.5 0,-0.7 C 10.5,5.4 10.3,4.6 9.9,3.9 9.8,3.6 9.5,3.3 9.2,3.1 8.9,2.8 8.6,2.7 8.2,2.7 7.7,2.7 7.2,2.9 6.9,3.3 6.5,3.8 6.4,4.3 6.4,4.8 6.4,5.5 6.6,6.2 7,7 7.2,7.4 7.5,7.7 7.8,7.9 8.1,8.2 8.5,8.3 8.9,8.3 Z"
         id="path3572"
         inkscape:connector-curvature="0"
         style="fill:#ffffff" />
      <polygon
         points="15.6,2 15.6,4.5 13.1,4.5 13.1,5.7 15.6,5.7 15.6,7 16.9,7 16.9,5.7 18.1,5.7 18.1,4.5 16.9,4.5 16.9,2 "
         id="polygon3574"
         style="fill:#ffffff" />
    </svg>
    <svg
       height="20"
       viewBox="0 0 20 20"
       width="20"
       x="246"
       y="80"
       id="svg3576"
       version="1.1"
       inkscape:version="0.91 r13725">
      <path
         d="m 17.1,0 c 0.8,0 1.5,0.3 2.1,0.9 0.5,0.5 0.8,1.2 0.8,2 l 0,14.2 c 0,0.8 -0.3,1.5 -0.9,2.1 -0.6,0.6 -1.3,0.9 -2.1,0.9 l -14.1,0 C 2.1,20.1 1.4,19.8 0.8,19.2 0.2,18.6 0,17.9 0,17.1 L 0,2.9 C 0,2.1 0.3,1.4 0.9,0.8 1.5,0.2 2.1,0 2.9,0 2.9,0 17.1,0 17.1,0 Z M 10,6.2 C 9,6.2 8.1,6.6 7.3,7.3 6.5,8 6.3,9 6.3,10 c 0,1 0.4,1.9 1.1,2.7 0.7,0.7 1.6,1.1 2.7,1.1 1,0 1.9,-0.4 2.7,-1.1 C 13.5,12 13.9,11.1 13.9,10 13.9,8.9 13.5,8.1 12.8,7.3 11.9,6.6 11,6.2 10,6.2 Z m 7.9,11.3 0,-8.8 -2.2,0 c 0.1,0.4 0.1,0.8 0.1,1.2 0,1.1 -0.3,2 -0.8,2.9 -0.5,0.9 -1.2,1.6 -2.1,2.1 C 12,15.4 11,15.7 10,15.7 9,15.7 8,15.6 7.1,15 6.2,14.5 5.5,13.8 5,12.9 4.4,12 4.2,11.1 4.2,10 4.2,9.6 4.2,9.1 4.3,8.8 l -2.2,0 0,8.7 c 0,0.1 0,0.2 0.1,0.3 0.1,0.1 0.2,0.1 0.3,0.1 l 15,0 c 0.1,0 0.2,0 0.3,-0.1 0.1,-0.1 0.1,-0.2 0.1,-0.3 l 0,0 z m 0,-12.5 0,-2.5 c 0,-0.1 0,-0.2 -0.1,-0.3 C 17.7,2.1 17.6,2.1 17.5,2.1 l -2.5,0 c -0.1,0 -0.2,0 -0.3,0.1 -0.1,0.1 -0.1,0.2 -0.1,0.3 l 0,2.5 c 0,0.1 0,0.2 0.1,0.3 0.1,0.1 0.2,0.1 0.3,0.1 l 2.5,0 c 0.1,0 0.2,0 0.3,-0.1 0.1,-0.1 0.1,-0.2 0.1,-0.3 z"
         id="path3578"
         inkscape:connector-curvature="0"
         style="fill:#ffffff" />
    </svg>
    <svg
       height="16"
       viewBox="0 0 20 16"
       width="20"
       x="246"
       y="105"
       id="svg3580"
       version="1.1"
       inkscape:version="0.91 r13725">
      <path
         d="m 19.6,0 -6.9,0 c -1.3,0 -1.5,0.5 -1.5,1.8 l 0,-0.1 C 11.2,0.4 9.3,0 8,0 l -7,0 0,12.7 0,0.3 2.3,1.9 4.7,0 c 0,0 0.6,0.9 1.1,0.9 l 2.3,0 c 0.7,0 1.1,-0.9 1.1,-0.9 l 4.7,0 2.3,-1.9 0,-0.3 0.1,-12.7 0,0 z m -17.7,0.9 6,0 0,0 c 0.7,0 1.4,0.1 1.4,0.7 l 0,10.4 -7.4,0 0,-11.1 z m 16.8,11.2 -6.5,0 0,-10.3 C 12.2,1.1 12.1,1 12.8,1 l 6,0 0,11.1 z"
         id="path3582"
         inkscape:connector-curvature="0"
         style="fill:#ffffff" />
      <rect
         x="13.1"
         y="4.6999998"
         width="4.6999998"
         height="0.89999998"
         id="rect3584"
         style="fill:#ffffff" />
      <rect
         x="13.1"
         y="1.9"
         width="4.6999998"
         height="0.89999998"
         id="rect3586"
         style="fill:#ffffff" />
      <rect
         x="13.1"
         y="6.5"
         width="4.6999998"
         height="1.9"
         id="rect3588"
         style="fill:#ffffff" />
      <rect
         x="13.1"
         y="10.2"
         width="4.6999998"
         height="0.89999998"
         id="rect3590"
         style="fill:#ffffff" />
      <rect
         x="2.8"
         y="4.6999998"
         width="4.6999998"
         height="0.89999998"
         id="rect3592"
         style="fill:#ffffff" />
      <rect
         x="2.8"
         y="1.9"
         width="4.6999998"
         height="0.89999998"
         id="rect3594"
         style="fill:#ffffff" />
      <rect
         x="2.8"
         y="6.5"
         width="4.6999998"
         height="1.9"
         id="rect3596"
         style="fill:#ffffff" />
      <rect
         x="2.8"
         y="10.2"
         width="4.6999998"
         height="0.89999998"
         id="rect3598"
         style="fill:#ffffff" />
    </svg>
    <svg
       height="16"
       viewBox="0 0 20 16"
       width="20"
       x="246"
       y="126"
       id="svg3600"
       version="1.1"
       inkscape:version="0.91 r13725">
      <path
         d="M 18.4,2 12.7,2 11.8,0.7 C 11.6,0.2 11.2,0 10.8,0 L 8.3,0 C 7.8,0 7.4,0.3 7.3,0.7 L 6.4,2 4.5,2 l 0,-1 -2,0 0,1 -1.6,0 C 0.3,2 0.5,2.7 0.5,3.3 l 0,11 c 0,0.6 -0.2,1.7 0.4,1.7 l 17.5,0 c 0.6,0 1.1,-1.1 1.1,-1.7 l 0,-11 C 19.5,2.7 19,2 18.4,2 Z M 9.6,13.1 c -2.4,0 -4.3,-1.9 -4.3,-4.3 0,-2.4 1.9,-4.3 4.3,-4.3 2.4,0 4.3,1.9 4.3,4.3 0,2.4 -1.9,4.3 -4.3,4.3 z m 6.9,-6.5 c -0.8,0 -1.4,-0.6 -1.4,-1.4 0,-0.8 0.7,-1.5 1.5,-1.5 0.8,0 1.5,0.7 1.5,1.5 0,0.8 -0.7,1.4 -1.6,1.4 z"
         id="path3602"
         inkscape:connector-curvature="0"
         style="fill:#ffffff" />
    </svg>
    <svg
       height="17.200001"
       viewBox="0 0 18 18"
       width="17.5"
       x="246"
       y="147"
       id="svg3604"
       version="1.1"
       inkscape:version="0.91 r13725">
      <path
         d="m 6.9,1.1 c 3.1,0 5.6,2.5 5.6,5.6 0,3.1 -2.5,5.6 -5.6,5.6 C 3.8,12.3 1.3,9.8 1.3,6.7 1.3,3.6 3.8,1.1 6.9,1.1 M 6.9,0 C 3.2,0 0.2,3 0.2,6.7 c 0,3.7 3,6.7 6.7,6.7 3.7,0 6.7,-3 6.7,-6.7 C 13.5,2.9 10.6,0 6.9,0 l 0,0 z"
         id="path3606"
         inkscape:connector-curvature="0"
         style="fill:#ffffff" />
      <rect
         x="12.4"
         y="11.2"
         transform="matrix(0.7071,-0.7071,0.7071,0.7071,-5.7168,14.1519)"
         width="3.5999999"
         height="5.5"
         id="rect3608"
         style="fill:#ffffff" />
    </svg>
    <svg
       height="17.200001"
       viewBox="0 0 18 18"
       width="17.5"
       x="246"
       y="170"
       id="svg3610"
       version="1.1"
       inkscape:version="0.91 r13725">
      <path
         d="m 6.9,1.1 c 3.1,0 5.6,2.5 5.6,5.6 0,3.1 -2.5,5.6 -5.6,5.6 C 3.8,12.3 1.3,9.8 1.3,6.7 1.3,3.6 3.8,1.1 6.9,1.1 M 6.9,0 C 3.2,0 0.2,3 0.2,6.7 c 0,3.7 3,6.7 6.7,6.7 3.7,0 6.7,-3 6.7,-6.7 C 13.5,2.9 10.6,0 6.9,0 l 0,0 z"
         id="path3612"
         inkscape:connector-curvature="0"
         style="fill:#000000" />
      <rect
         x="12.4"
         y="11.2"
         transform="matrix(0.7071,-0.7071,0.7071,0.7071,-5.7168,14.1519)"
         width="3.5999999"
         height="5.5"
         id="rect3614"
         style="fill:#000000" />
    </svg>
    <svg
       height="16"
       viewBox="0 0 17 16"
       width="16.4"
       x="246"
       y="192"
       id="svg3616"
       version="1.1"
       inkscape:version="0.91 r13725">
      <path
         d="m 14.4,5.9 -3.3,3.3 0,-2.5 C 11.1,6.2 10.5,6 10,6 L 0.8,6 C 0.3,6 0.1,6.2 0.1,6.7 l 0,8.1 c 0,0.6 0.1,1.1 0.7,1.1 l 9.2,0 c 0.6,0 1.1,-0.6 1.1,-1.1 l 0,-2.5 3.3,3.3 c 0.7,0.5 1.7,0 1.7,-0.8 l 0,-8.1 c 0,-0.8 -1,-1.3 -1.7,-0.8 z"
         id="path3618"
         inkscape:connector-curvature="0"
         style="fill:#ffffff" />
      <g
         id="g3620">
        <circle
           cx="2.3"
           cy="2.4000001"
           r="2.3"
           id="circle3622"
           style="fill:#ffffff" />
      </g>
      <g
         id="g3624">
        <circle
           cx="8.5"
           cy="2.4000001"
           r="2.3"
           id="circle3626"
           style="fill:#ffffff" />
      </g>
    </svg>
    <svg
       height="16"
       viewBox="0 0 17 16"
       width="16.4"
       x="246"
       y="213"
       id="svg3628"
       version="1.1"
       inkscape:version="0.91 r13725">
      <path
         d="m 14.4,5.9 -3.3,3.3 0,-2.5 C 11.1,6.2 10.5,6 10,6 L 0.8,6 C 0.3,6 0.1,6.2 0.1,6.7 l 0,8.1 c 0,0.6 0.1,1.1 0.7,1.1 l 9.2,0 c 0.6,0 1.1,-0.6 1.1,-1.1 l 0,-2.5 3.3,3.3 c 0.7,0.5 1.7,0 1.7,-0.8 l 0,-8.1 c 0,-0.8 -1,-1.3 -1.7,-0.8 z"
         id="path3630"
         inkscape:connector-curvature="0"
         style="fill:#000000" />
      <circle
         cx="2.3"
         cy="2.4000001"
         r="2.3"
         id="circle3632"
         style="fill:#000000" />
      <circle
         cx="8.5"
         cy="2.4000001"
         r="2.3"
         id="circle3634"
         style="fill:#000000" />
    </svg>
    <svg
       height="16"
       viewBox="0 0 16 16"
       width="16"
       x="221"
       y="133"
       id="svg3636"
       version="1.1"
       inkscape:version="0.91 r13725">
      <g
         id="XMLID_5_">
        <polygon
           id="XMLID_3_"
           points="0,15.3 8,0.5 16,15.3 "
           style="fill:#010101" />
        <rect
           id="XMLID_2_"
           x="6.9000001"
           y="5.0999999"
           width="2.3"
           height="5.6999998"
           style="fill:#ffffff" />
        <rect
           id="XMLID_1_"
           x="6.9000001"
           y="11.9"
           width="2.3"
           height="2.3"
           style="fill:#ffffff" />
      </g>
    </svg>
    <svg
       height="16"
       viewBox="0 0 16 16"
       width="16"
       x="152"
       y="159"
       id="svg3642"
       version="1.1"
       inkscape:version="0.91 r13725">
      <rect
         id="XMLID_4_"
         x="6.8000002"
         y="1.2"
         width="3"
         height="10"
         style="fill:#ffffff" />
      <rect
         id="rect3645"
         x="7"
         y="12"
         width="3"
         height="3"
         style="fill:#ffffff" />
    </svg>
    <svg
       height="16"
       viewBox="0 0 16 16"
       width="16"
       x="173"
       y="159"
       id="svg3647"
       version="1.1"
       inkscape:version="0.91 r13725">
      <path
         d="M 11,15 4,8 11,1 12.1,2.1 6.1,8 12,13.9 11,15 Z"
         id="path3649"
         inkscape:connector-curvature="0"
         style="fill:#010101" />
    </svg>
    <svg
       height="16"
       viewBox="0 0 16 16"
       width="16"
       x="194"
       y="159"
       id="svg3651"
       version="1.1"
       inkscape:version="0.91 r13725">
      <path
         d="m 7,7.9 1.1,1.1 -4.9,4.9 4.5,0 0,1.6 -7.2,0 0,-7.2 1.6,0 0,4.5 L 7,7.9 Z m 1.3,-7.4 7.2,0 0,7.2 -1.6,0 0,-4.5 L 9,8.1 7.9,7 l 4.9,-4.9 -4.5,0 0,-1.6 0,0 z"
         id="path3653"
         inkscape:connector-curvature="0"
         style="fill:#ffffff" />
    </svg>
    <svg
       height="16"
       viewBox="0 0 16 16"
       width="16"
       x="215"
       y="159"
       id="svg3655"
       version="1.1"
       inkscape:version="0.91 r13725">
      <g
         id="g3657">
        <path
           d="m 3,0.5 0,2 10,0 0,10.5 c 0,0.8 0.7,1.5 1.5,1.5 0.8,0 1.5,-0.7 1.5,-1.5 l 0,-7.2 0,-2.7 0,-2.6 -13,0 z"
           id="path3659"
           inkscape:connector-curvature="0"
           style="fill:#ffffff" />
        <g
           id="g3661">
          <path
             d="m 12,14.5 c 0,-0.5 0,-11 0,-11 l -12,0 0,9 c 0,1.7 1.3,3 3,3 0,0 9.6,0 10,0 -0.5,0 -1,-0.5 -1,-1 z m -6,-2 -5,0 0,-1 5,0 0,1 z m 0,-2 -5,0 0,-1 5,0 0,1 z m 0,-2 -5,0 0,-1 5,0 0,1 z m 0,-2 -5,0 0,-1 5,0 0,1 z m 5,6 -4,0 0,-7 4,0 0,7 z"
             id="path3663"
             inkscape:connector-curvature="0"
             style="fill:#ffffff" />
        </g>
      </g>
    </svg>
    <svg
       height="16"
       viewBox="0 0 16 16"
       width="16"
       x="5"
       y="240"
       id="svg3665"
       version="1.1"
       inkscape:version="0.91 r13725">
      <path
         d="M 13.3,3.8 9.1,8 13.3,12.2 12.2,13.3 8,9.1 3.8,13.3 2.7,12.2 6.9,8 2.7,3.8 3.8,2.7 8,6.9 12.2,2.7 13.3,3.8 Z"
         id="path3667"
         inkscape:connector-curvature="0"
         style="fill:#ffffff" />
    </svg>
    <svg
       height="16"
       viewBox="0 0 16 16"
       width="16"
       x="26"
       y="240"
       id="svg3669"
       version="1.1"
       inkscape:version="0.91 r13725">
      <path
         d="M 13.3,3.8 9.1,8 13.3,12.2 12.2,13.3 8,9.1 3.8,13.3 2.7,12.2 6.9,8 2.7,3.8 3.8,2.7 8,6.9 12.2,2.7 13.3,3.8 Z"
         id="path3671"
         inkscape:connector-curvature="0"
         style="fill:#010101" />
    </svg>
    <svg
       height="16"
       viewBox="0 0 16 16"
       width="16"
       x="47"
       y="240"
       id="svg3673"
       version="1.1"
       inkscape:version="0.91 r13725">
      <g
         id="XMLID_6_">
        <path
           id="path3676"
           d="m 6.9,8.5 -4.3,5.4 -2.1,0 2.1,-5.4 -2.1,0 0,-6.4 6.4,0 0,6.4 z"
           inkscape:connector-curvature="0"
           style="fill:#ffffff" />
        <path
           id="path3678"
           d="m 15.5,8.5 -4.3,5.4 -2.1,0 2.1,-5.4 -2.1,0 0,-6.4 6.4,0 0,6.4 z"
           inkscape:connector-curvature="0"
           style="fill:#ffffff" />
      </g>
    </svg>
    <svg
       height="16"
       viewBox="0 0 16 16"
       width="16"
       x="68"
       y="240"
       id="svg3680"
       version="1.1"
       inkscape:version="0.91 r13725">
      <path
         d="m 1.1,11 7,-7 7,7 L 14,12.1 8.1,6.1 2.2,12 1.1,11 Z"
         id="path3682"
         inkscape:connector-curvature="0"
         style="fill:#010101" />
    </svg>
    <svg
       height="16"
       viewBox="0 0 16 16"
       width="16"
       x="89"
       y="240"
       id="svg3684"
       version="1.1"
       inkscape:version="0.91 r13725">
      <g
         id="g3686">
        <polygon
           points="5.4,10.7 3.3,10.7 4.3,15.7 6.4,15.7 "
           id="polygon3688"
           style="fill:#ffffff" />
        <path
           d="m 0,6.7 c 0,2.5 2,3 2,3 l 5,0 0,-6 -5,0 c 0,0 -2,0.4 -2,3 z"
           id="path3690"
           inkscape:connector-curvature="0"
           style="fill:#ffffff" />
        <path
           d="M 14.6,0.4 8,3.7 8,9.7 14.6,13 C 15.3,13.3 16,12.8 16,12.1 L 16,1.3 C 16,0.6 15.2,0.1 14.6,0.4 Z"
           id="path3692"
           inkscape:connector-curvature="0"
           style="fill:#ffffff" />
      </g>
    </svg>
    <svg
       height="16"
       viewBox="0 0 16 16"
       width="16"
       x="110"
       y="240"
       id="svg3694"
       version="1.1"
       inkscape:version="0.91 r13725">
      <g
         id="g3696">
        <path
           d="m 12,16 -7.5,0 -1,-1 8.5,0 c 0.8,0 1.5,-0.6 1.5,-1.5 l 0,-12 1,0.5 0,11.5 c 0,1.4 -1.1,2.5 -2.5,2.5 z"
           id="path3698"
           inkscape:connector-curvature="0"
           style="fill:#ffffff" />
        <g
           id="g3700">
          <path
             d="m 1.5,0 0,12 c 0,1.1 0.9,2 2,2 l 7,0 c 1.1,0 2,-0.9 2,-2 l 0,-12 -11,0 z m 7,1 1,0 0,1 -1,0 0,-1 z m -2,0 1,0 0,1 -1,0 0,-1 z m -2,0 1,0 0,1 -1,0 0,-1 z m -2,0 1,0 0,1 -1,0 0,-1 z m 8,10 -7,0 0,-1 7,0 0,1 z m 0,-2 -7,0 0,-1 7,0 0,1 z m 0,-2 -7,0 0,-1 7,0 0,1 z m 0,-2 -7,0 0,-1 7,0 0,1 z m 1,-3 -1,0 0,-1 1,0 0,1 z"
             id="path3702"
             inkscape:connector-curvature="0"
             style="fill:#ffffff" />
        </g>
      </g>
    </svg>
    <svg
       height="16"
       viewBox="0 0 16 16"
       width="16"
       x="131"
       y="240"
       id="svg3704"
       version="1.1"
       inkscape:version="0.91 r13725">
      <g
         id="g3706">
        <polygon
           id="polygon3708"
           points="0,15.3 8,0.5 16,15.3 "
           style="fill:#ffffff" />
        <rect
           id="rect3710"
           x="6.9000001"
           y="5.0999999"
           width="2.3"
           height="5.6999998"
           style="fill:#000000" />
        <rect
           id="rect3712"
           x="6.9000001"
           y="11.9"
           width="2.3"
           height="2.3"
           style="fill:#000000" />
      </g>
    </svg>
    <svg
       height="16"
       viewBox="0 0 16 16"
       width="16"
       x="152"
       y="240"
       id="svg3714"
       version="1.1"
       inkscape:version="0.91 r13725">
      <path
         d="M 5.1,15 4,13.9 9.8,8 3.9,2.1 5.1,1 l 7,7 -7,7 z"
         id="path3716"
         inkscape:connector-curvature="0"
         style="fill:#ffffff" />
    </svg>
    <svg
       height="16"
       viewBox="0 0 16 16"
       width="16"
       x="173"
       y="240"
       id="svg3718"
       version="1.1"
       inkscape:version="0.91 r13725">
      <path
         d="M 5.1,15 4,13.9 9.8,8 3.9,2.1 5.1,1 l 7,7 -7,7 z"
         id="path3720"
         inkscape:connector-curvature="0"
         style="fill:#010101" />
    </svg>
    <svg
       height="16"
       viewBox="0 0 16 16"
       width="16"
       x="194"
       y="240"
       id="svg3722"
       version="1.1"
       inkscape:version="0.91 r13725">
      <circle
         cx="2.5"
         cy="13.6"
         id="ellipse3724"
         r="2.0999999"
         style="fill:#ffffff" />
      <path
         d="m 10.5,15.7 -3,0 c 0,-4 -3.2,-7.2 -7.1,-7.2 l 0,0 0,-3 c 5.6,0 10.1,4.6 10.1,10.2 z"
         id="path3726"
         inkscape:connector-curvature="0"
         style="fill:#ffffff" />
      <path
         d="M 12.6,15.7 C 12.6,8.9 7.1,3.4 0.4,3.4 l 0,-3.1 c 8.4,0 15.2,6.9 15.2,15.4 l -3,0 z"
         id="path3728"
         inkscape:connector-curvature="0"
         style="fill:#ffffff" />
    </svg>
    <svg
       height="16"
       viewBox="0 0 16 16"
       width="16"
       x="215"
       y="240"
       id="svg3730"
       version="1.1"
       inkscape:version="0.91 r13725">
      <circle
         cx="2.5"
         cy="13.6"
         id="ellipse3732"
         r="2.0999999"
         style="fill:#000000" />
      <path
         d="m 10.5,15.7 -3,0 c 0,-4 -3.2,-7.2 -7.1,-7.2 l 0,0 0,-3 c 5.6,0 10.1,4.6 10.1,10.2 z"
         id="path3734"
         inkscape:connector-curvature="0"
         style="fill:#000000" />
      <path
         d="M 12.6,15.7 C 12.6,8.9 7.1,3.4 0.4,3.4 l 0,-3.1 c 8.4,0 15.2,6.9 15.2,15.4 l -3,0 z"
         id="path3736"
         inkscape:connector-curvature="0"
         style="fill:#000000" />
    </svg>
    <svg
       height="16"
       viewBox="0 0 16 16"
       width="16"
       x="236"
       y="240"
       id="svg3738"
       version="1.1"
       inkscape:version="0.91 r13725">
      <path
         d="m 8,0.5 c 1,0 2,0.2 2.9,0.6 0.9,0.4 1.7,0.9 2.4,1.6 0.7,0.7 1.2,1.5 1.6,2.4 0.4,0.9 0.6,1.9 0.6,2.9 0,1 -0.2,2 -0.6,2.9 -0.4,0.9 -0.9,1.7 -1.6,2.4 -0.7,0.7 -1.5,1.3 -2.4,1.6 C 10,15.3 9,15.5 8,15.5 7,15.5 6,15.3 5.1,14.9 4.2,14.5 3.4,14 2.7,13.3 2,12.6 1.5,11.8 1.1,10.9 0.7,10 0.5,9 0.5,8 0.5,7 0.7,6 1.1,5.1 1.4,4.2 2,3.4 2.7,2.7 3.4,2 4.2,1.4 5.1,1.1 6,0.7 7,0.5 8,0.5 Z m 4.3,11.8 c 0.6,-0.6 1,-1.2 1.3,-2 C 13.9,9.6 14,8.8 14,8 14,6.9 13.7,5.9 13.2,5 12.7,4.1 11.9,3.3 11,2.8 10.1,2.3 9.1,2 8,2 7.2,2 6.4,2.1 5.7,2.4 5,2.7 4.3,3.2 3.7,3.7 3.1,4.2 2.7,4.9 2.4,5.7 2.1,6.5 2,7.2 2,8 c 0,1.1 0.3,2.1 0.8,3 0.5,0.9 1.3,1.7 2.2,2.2 0.9,0.6 1.9,0.8 3,0.8 0.8,0 1.6,-0.2 2.3,-0.5 0.8,-0.2 1.4,-0.7 2,-1.2 l 0,0 z m -5.1,-6.6 0,-1.5 1.5,0 0,1.5 -1.5,0 z m 0,6.1 0,-5.2 1.5,0 0,5.2 -1.5,0 z"
         id="path3740"
         inkscape:connector-curvature="0"
         style="fill:#010101" />
    </svg>
    <svg
       height="16"
       viewBox="0 0 16 16"
       width="16"
       x="271"
       y="5"
       id="svg3742"
       version="1.1"
       inkscape:version="0.91 r13725">
      <path
         d="m 15.1,5.1 -7,7 -7,-7 1.1,-1.1 5.9,6 5.9,-5.9 1.1,1 z"
         id="path3744"
         inkscape:connector-curvature="0"
         style="fill:#ffffff" />
    </svg>
    <svg
       height="16"
       viewBox="0 0 16 16"
       width="16"
       x="271"
       y="26"
       id="svg3746"
       version="1.1"
       inkscape:version="0.91 r13725">
      <path
         d="m 15.1,5.1 -7,7 -7,-7 1.1,-1.1 5.9,6 5.9,-5.9 1.1,1 z"
         id="path3748"
         inkscape:connector-curvature="0"
         style="fill:#010101" />
    </svg>
    <svg
       height="16"
       viewBox="0 0 16 16"
       width="16"
       x="271"
       y="47"
       id="svg3750"
       version="1.1"
       inkscape:version="0.91 r13725">
      <g
         id="g3752">
        <circle
           id="XMLID_8_"
           cx="8"
           cy="8"
           r="1"
           style="fill:#ffffff" />
        <path
           id="path3755"
           d="M 15.4,7.7 C 13.9,5.5 11.1,4.1 8.2,4.1 c 0,0 -0.1,0 -0.1,0 0,0 -0.1,0 -0.1,0 -3,0 -5.7,1.4 -7.2,3.6 L 0.5,8 0.7,8.3 c 1.5,2.2 4.3,3.6 7.2,3.6 0,0 0.1,0 0.1,0 0,0 0.1,0 0.1,0 3,0 5.7,-1.4 7.2,-3.6 L 15.5,8 15.4,7.7 Z M 8,10.9 C 6.3,10.9 5,9.6 5,8 5,6.4 6.4,5.1 8,5.1 c 1.6,0 3,1.3 3,2.9 0,1.6 -1.3,2.9 -3,2.9 z M 1.6,8 C 2.4,7 3.5,6.1 4.8,5.6 4.3,6.3 4,7.1 4,8 4,8.9 4.3,9.7 4.8,10.4 3.5,9.9 2.4,9 1.6,8 Z m 9.6,2.4 C 11.7,9.7 12,8.9 12,8 12,7.1 11.7,6.3 11.2,5.6 12.5,6.1 13.6,7 14.4,8 13.6,9 12.5,9.9 11.2,10.4 Z"
           inkscape:connector-curvature="0"
           style="fill:#ffffff" />
      </g>
    </svg>
    <svg
       height="16"
       viewBox="0 0 16 16"
       width="16"
       x="271"
       y="68"
       id="svg3757"
       version="1.1"
       inkscape:version="0.91 r13725">
      <g
         id="g3759">
        <circle
           id="circle3761"
           cx="8"
           cy="8"
           r="1"
           style="fill:#ffffff" />
        <path
           id="path3763"
           d="M 15.4,7.7 C 13.9,5.5 11.1,4.1 8.2,4.1 c 0,0 -0.1,0 -0.1,0 0,0 -0.1,0 -0.1,0 -3,0 -5.7,1.4 -7.2,3.6 L 0.5,8 0.7,8.3 c 1.5,2.2 4.3,3.6 7.2,3.6 0,0 0.1,0 0.1,0 0,0 0.1,0 0.1,0 3,0 5.7,-1.4 7.2,-3.6 L 15.5,8 15.4,7.7 Z M 8,10.9 C 6.3,10.9 5,9.6 5,8 5,6.4 6.4,5.1 8,5.1 c 1.6,0 3,1.3 3,2.9 0,1.6 -1.3,2.9 -3,2.9 z M 1.6,8 C 2.4,7 3.5,6.1 4.8,5.6 4.3,6.3 4,7.1 4,8 4,8.9 4.3,9.7 4.8,10.4 3.5,9.9 2.4,9 1.6,8 Z m 9.6,2.4 C 11.7,9.7 12,8.9 12,8 12,7.1 11.7,6.3 11.2,5.6 12.5,6.1 13.6,7 14.4,8 13.6,9 12.5,9.9 11.2,10.4 Z"
           inkscape:connector-curvature="0"
           style="fill:#ffffff" />
      </g>
    </svg>
    <svg
       height="16"
       viewBox="0 0 16 16"
       width="16"
       x="271"
       y="89"
       id="svg3765"
       version="1.1"
       inkscape:version="0.91 r13725">
      <path
         d="m 1.1,11 7,-7 7,7 L 14,12.1 8.1,6.1 2.2,12 1.1,11 Z"
         id="path3767"
         inkscape:connector-curvature="0"
         style="fill:#ffffff" />
    </svg>
    <svg
       height="16"
       viewBox="0 0 16 16"
       width="16"
       x="271"
       y="110"
       id="svg3769"
       version="1.1"
       inkscape:version="0.91 r13725">
      <g
         id="g3771">
        <polygon
           points="0,4.1 8,8.1 14,5.1 14,13.5 13.4,15.9 15.6,15.9 15,13.5 15,4.6 16,4.1 8,0.1 "
           id="polygon3773"
           style="fill:#ffffff" />
        <path
           d="m 3,6.6 0,4 c 0,0 1.4,2.5 5,2.5 3.6,0 5,-2.5 5,-2.5 L 13,7.1 8,9.6 3,6.6 Z"
           id="path3775"
           inkscape:connector-curvature="0"
           style="fill:#ffffff" />
      </g>
    </svg>
    <svg
       height="16"
       viewBox="0 0 16 16"
       width="16"
       x="271"
       y="131"
       id="svg3777"
       version="1.1"
       inkscape:version="0.91 r13725">
      <path
         d="M 11,15 4,8 11,1 12.1,2.1 6.1,8 12,13.9 11,15 Z"
         id="path3779"
         inkscape:connector-curvature="0"
         style="fill:#ffffff" />
    </svg>
    <svg
       height="16"
       viewBox="0 0 13 16"
       width="12.1"
       x="271"
       y="152"
       id="svg3781"
       version="1.1"
       inkscape:version="0.91 r13725">
      <polygon
         points="3.2,0 0.1,3 3.2,3 "
         id="polygon3783"
         style="fill:#ffffff" />
      <path
         d="m 4.1,0 0,4 -4,0 0,12 12,0 0,-16 -8,0 z m 6,13 -8,0 0,-1 8,0 0,1 z m 0,-2 -8,0 0,-1 8,0 0,1 z m 0,-2 -8,0 0,-1 8,0 0,1 z m 0,-2 -8,0 0,-1 8,0 0,1 z"
         id="path3785"
         inkscape:connector-curvature="0"
         style="fill:#ffffff" />
    </svg>
    <svg
       height="14"
       viewBox="0 0 14 14"
       width="14"
       x="271"
       y="173"
       id="svg3787"
       version="1.1"
       inkscape:version="0.91 r13725">
      <g
         id="g3789">
        <path
           d="m 13,3 -5.3,0 0.4,1 4.9,0 0,7.1 1,-0.9 c 0,0 0,-5.7 0,-6.7 C 14,2.5 12.6,3 12.6,3"
           id="path3791"
           inkscape:connector-curvature="0"
           style="fill:#ffffff" />
        <path
           d="M 11.1,5 7.3,5 6.2,3 C 6.2,3 5.8,2 5.1,2 L 4.2,2 3.1,2 2.4,2 C 1.7,2 1.2,2.8 1.2,2.8 L 0,4.5 l 0,7 c 0,1 1.1,1.5 1.1,1.5 l 10,0 c 0,0 0.9,-0.5 0.9,-1.5 l 0,-6 C 12,4.5 11.1,5 11.1,5 Z"
           id="path3793"
           inkscape:connector-curvature="0"
           style="fill:#ffffff" />
      </g>
    </svg>
    <svg
       height="14"
       viewBox="0 0 14 14"
       width="14"
       x="271"
       y="192"
       id="svg3795"
       version="1.1"
       inkscape:version="0.91 r13725">
      <g
         id="g3797">
        <path
           id="path3799"
           d="M 10.1,3.7 C 11,3.5 11.7,3.3 12.5,3 11.6,1.9 10.4,1 9.1,0.6 c 0.4,1 0.7,2 1,3.1 z"
           inkscape:connector-curvature="0"
           style="fill:#000000" />
        <path
           id="XMLID_9_"
           d="M 4,3.7 C 4.3,2.6 4.6,1.5 5,0.4 3.6,0.9 2.4,1.8 1.5,3 2.3,3.3 3.1,3.6 4,3.7 Z"
           inkscape:connector-curvature="0"
           style="fill:#000000" />
        <path
           id="XMLID_10_"
           d="M 4.9,3.9 C 5.6,4 6.3,4.1 7,4.1 7.7,4.1 8.4,4 9.1,3.9 8.9,2.6 8.5,1.4 7.9,0.2 7.6,0.2 7.3,0.1 7,0.1 6.7,0.1 6.5,0.1 6.2,0.2 5.6,1.4 5.2,2.6 4.9,3.9 Z"
           inkscape:connector-curvature="0"
           style="fill:#000000" />
        <path
           id="XMLID_11_"
           d="M 9.3,9.1 C 9.4,8.5 9.5,7.7 9.5,7 9.5,6.3 9.4,5.5 9.3,4.9 8.5,4.9 7.8,5 7,5 6.2,5 5.5,4.9 4.8,4.9 4.7,5.5 4.6,6.2 4.6,7 4.6,7.7 4.7,8.5 4.8,9.1 5.5,9.1 6.2,9 7,9 7.8,9 8.5,9.1 9.3,9.1 Z"
           inkscape:connector-curvature="0"
           style="fill:#000000" />
        <path
           id="XMLID_12_"
           d="m 13,10.1 c 0.5,-0.9 0.8,-2 0.8,-3.1 0,-1.1 -0.3,-2.2 -0.8,-3.2 -0.9,0.3 -1.8,0.7 -2.7,0.9 0.1,0.8 0.2,1.5 0.2,2.3 0,0.8 -0.1,1.5 -0.2,2.3 0.9,0.2 1.9,0.4 2.7,0.8 z"
           inkscape:connector-curvature="0"
           style="fill:#000000" />
        <path
           id="XMLID_13_"
           d="M 9.1,10.1 C 8.5,10 7.8,9.9 7.1,9.9 6.4,9.9 5.7,10 5,10.1 c 0.3,1.3 0.7,2.5 1.3,3.7 0.3,0 0.5,0.1 0.8,0.1 0.3,0 0.6,0 0.9,-0.1 0.5,-1.2 0.9,-2.4 1.1,-3.7 z"
           inkscape:connector-curvature="0"
           style="fill:#000000" />
        <path
           id="XMLID_14_"
           d="m 10.1,10.3 c -0.3,1.1 -0.6,2.2 -1,3.3 1.4,-0.4 2.6,-1.4 3.4,-2.5 -0.8,-0.4 -1.6,-0.7 -2.4,-0.8 z"
           inkscape:connector-curvature="0"
           style="fill:#000000" />
        <path
           id="XMLID_15_"
           d="M 3.8,9.3 C 3.7,8.5 3.7,7.8 3.7,7 3.7,6.2 3.8,5.5 3.9,4.7 2.9,4.5 1.9,4.2 1,3.8 0.5,4.8 0.2,5.9 0.2,7 0.2,8.1 0.5,9.2 1,10.2 1.9,9.7 2.9,9.5 3.8,9.3 Z"
           inkscape:connector-curvature="0"
           style="fill:#000000" />
        <path
           id="XMLID_16_"
           d="M 4,10.3 C 3.1,10.5 2.4,10.7 1.5,11.1 2.4,12.3 3.6,13.2 5,13.6 4.5,12.5 4.2,11.4 4,10.3 Z"
           inkscape:connector-curvature="0"
           style="fill:#000000" />
      </g>
    </svg>
    <svg
       height="14"
       viewBox="0 0 14 14"
       width="14"
       x="271"
       y="211"
       id="svg3809"
       version="1.1"
       inkscape:version="0.91 r13725">
      <g
         id="g3811">
        <rect
           id="rect3813"
           x="0.80000001"
           y="1.4"
           width="1.9"
           height="12.4"
           style="fill:#000000" />
        <polygon
           id="polygon3815"
           points="3.7,1.2 13.2,4.5 3.7,7.9 "
           style="fill:#000000" />
        <circle
           id="circle3817"
           cx="1.8"
           cy="1.2"
           r="1"
           style="fill:#000000" />
      </g>
    </svg>
    <svg
       height="14"
       viewBox="0 0 14 14"
       width="14"
       x="271"
       y="230"
       id="svg3819"
       version="1.1"
       inkscape:version="0.91 r13725">
      <g
         id="g3821">
        <path
           d="m 13,3 -5.3,0 0.4,1 4.9,0 0,7.1 1,-0.9 c 0,0 0,-5.7 0,-6.7 C 14,2.5 12.6,3 12.6,3"
           id="path3823"
           inkscape:connector-curvature="0"
           style="fill:#000000" />
        <path
           d="M 11.1,5 7.3,5 6.2,3 C 6.2,3 5.8,2 5.1,2 L 4.2,2 3.1,2 2.4,2 C 1.7,2 1.2,2.8 1.2,2.8 L 0,4.5 l 0,7 c 0,1 1.1,1.5 1.1,1.5 l 10,0 c 0,0 0.9,-0.5 0.9,-1.5 l 0,-6 C 12,4.5 11.1,5 11.1,5 Z"
           id="path3825"
           inkscape:connector-curvature="0"
           style="fill:#000000" />
      </g>
    </svg>
    <svg
       height="14"
       viewBox="0 0 14 14"
       width="14"
       x="5"
       y="261"
       id="svg3827"
       version="1.1"
       inkscape:version="0.91 r13725">
      <path
         d="M 7,0.2 C 4.2,0.2 1.9,2.5 1.9,5.3 1.9,7 3,8.4 4.3,10 l 2.9,3.9 3,-4.2 c 1.2,-1.5 2,-2.6 2,-4.2 C 12.2,2.5 9.8,0.2 7,0.2 Z M 7,7.5 C 5.8,7.5 4.8,6.6 4.8,5.3 4.8,4 5.8,3.1 7,3.1 8.2,3.1 9.2,4 9.2,5.3 9.2,6.6 8.2,7.5 7,7.5 Z"
         id="path3829"
         inkscape:connector-curvature="0"
         style="fill:#ffffff" />
    </svg>
    <svg
       height="14"
       viewBox="0 0 14 14"
       width="14"
       x="24"
       y="261"
       id="svg3831"
       version="1.1"
       inkscape:version="0.91 r13725">
      <g
         id="g3833">
        <polygon
           points="4.6,0.2 1.9,2.8 4.6,2.8 "
           id="polygon3835"
           style="fill:#000000" />
        <path
           class="st0"
           d="m 5.3,0.2 0,3.4 -3.4,0 0,10.1 10.1,0 0,-13.5 -6.7,0 z m 5.1,11 -6.8,0 0,-0.8 6.8,0 0,0.8 z m 0,-1.7 -6.8,0 0,-0.8 6.8,0 0,0.8 z m 0,-1.7 -6.8,0 0,-0.8 6.8,0 0,0.8 z m 0,-1.6 -6.8,0 0,-0.9 6.8,0 0,0.9 z"
           id="path3837"
           inkscape:connector-curvature="0" />
      </g>
    </svg>
    <svg
       height="14"
       viewBox="0 0 14 14"
       width="14"
       x="43"
       y="261"
       id="svg3839"
       version="1.1"
       inkscape:version="0.91 r13725">
      <path
         d="M 7,0.2 C 4.2,0.2 1.9,2.5 1.9,5.3 1.9,7 3,8.4 4.3,10 l 2.9,3.9 3,-4.2 c 1.2,-1.5 2,-2.6 2,-4.2 C 12.2,2.5 9.8,0.2 7,0.2 Z M 7,7.5 C 5.8,7.5 4.8,6.6 4.8,5.3 4.8,4 5.8,3.1 7,3.1 8.2,3.1 9.2,4 9.2,5.3 9.2,6.6 8.2,7.5 7,7.5 Z"
         id="path3841"
         inkscape:connector-curvature="0"
         style="fill:#000000" />
    </svg>
    <svg
       height="7"
       viewBox="0 0 13 7"
       width="13"
       x="271"
       y="249"
       id="svg3843"
       version="1.1"
       inkscape:version="0.91 r13725">
      <polygon
         points="1,3.2 1,3.8 10.8,3.8 9.1,5.6 9.5,6 12,3.5 9.5,1 9.1,1.4 10.8,3.2 "
         id="polygon3845" />
    </svg>
    <svg
       height="7"
       viewBox="0 0 13 7"
       width="13"
       x="62"
       y="261"
       id="svg3847"
       version="1.1"
       inkscape:version="0.91 r13725">
      <polygon
         points="12,3.2 12,3.8 2.2,3.8 3.9,5.6 3.5,6 1,3.5 3.5,1 3.9,1.4 2.2,3.2 "
         id="polygon3849" />
    </svg>
    <g
       transform="matrix(0,-1,1,0,0,0)"
       style="font-style:normal;font-variant:normal;font-weight:normal;font-stretch:normal;font-size:13.75625038px;line-height:125%;font-family:'TradeGothic LT BdCondTwenty';-inkscape-font-specification:'TradeGothic LT BdCondTwenty, Normal';text-align:start;letter-spacing:0px;word-spacing:0px;writing-mode:lr-tb;text-anchor:start;fill:#ffffff;fill-opacity:1;stroke:none;stroke-width:1px;stroke-linecap:butt;stroke-linejoin:miter;stroke-opacity:1"
       id="text4671">
      <path
         d="m -59.30669,131.75937 4.759663,0 0,-1.48568 -3.053888,0 0,-2.91632 2.201,0 0,-1.48568 -2.201,0 0,-2.55866 2.8613,0 0,-1.48567 -4.567075,0 0,9.93201 z"
         id="path4684"
         inkscape:connector-curvature="0" />
      <path
         d="m -50.098814,124.27597 1.623237,-0.17883 c -0.04127,-0.33015 -0.123806,-0.6603 -0.247612,-0.96294 -0.137563,-0.30264 -0.288882,-0.55025 -0.481469,-0.77035 -0.192588,-0.20634 -0.426444,-0.37142 -0.701569,-0.49523 -0.275125,-0.11005 -0.591519,-0.17883 -0.935425,-0.17883 -0.852887,0.0138 -1.499431,0.23386 -1.953388,0.64655 -0.467712,0.42644 -0.687812,1.03172 -0.687812,1.82958 0.01376,0.48147 0.09629,0.89415 0.261369,1.25182 0.151318,0.35766 0.357662,0.68781 0.632787,0.96293 0.261369,0.28889 0.536494,0.55026 0.839132,0.78411 0.288881,0.24761 0.564006,0.48147 0.839131,0.71533 0.261369,0.24761 0.481469,0.49522 0.646544,0.74283 0.165075,0.26137 0.247612,0.55025 0.247612,0.8804 0,0.30264 -0.09629,0.52274 -0.275125,0.67406 -0.192587,0.16508 -0.426444,0.23386 -0.715325,0.23386 -0.275125,0 -0.508981,-0.12381 -0.687812,-0.37142 -0.192588,-0.24761 -0.302638,-0.61903 -0.33015,-1.12801 l -1.623238,0.23385 c 0,0.37142 0.06878,0.72908 0.206344,1.05923 0.123806,0.34391 0.288881,0.63279 0.508981,0.8804 0.206344,0.24762 0.467713,0.45396 0.784106,0.59152 0.302638,0.15132 0.6603,0.2201 1.059232,0.2201 0.398931,0 0.77035,-0.055 1.1005,-0.16507 0.33015,-0.11005 0.605275,-0.27513 0.852887,-0.49523 0.233856,-0.2201 0.412688,-0.48147 0.55025,-0.79786 0.123806,-0.30264 0.192588,-0.67406 0.192588,-1.08674 -0.02751,-0.46772 -0.11005,-0.86665 -0.261369,-1.21055 -0.165075,-0.33015 -0.371419,-0.6603 -0.632788,-0.96294 -0.275125,-0.30264 -0.55025,-0.56401 -0.839131,-0.81162 -0.302637,-0.23386 -0.577762,-0.46771 -0.839131,-0.71533 -0.275125,-0.23385 -0.481469,-0.46771 -0.646544,-0.71532 -0.165075,-0.23386 -0.247612,-0.49523 -0.247612,-0.78411 0,-0.31639 0.06878,-0.564 0.2201,-0.72908 0.137562,-0.16507 0.357662,-0.24761 0.632787,-0.24761 0.08254,0.0138 0.178831,0.0275 0.288881,0.055 0.09629,0.0275 0.192588,0.0963 0.288882,0.17883 0.08254,0.0963 0.165075,0.20635 0.2201,0.34391 0.05503,0.13756 0.08254,0.31639 0.11005,0.52274 z"
         id="path4686"
         inkscape:connector-curvature="0" />
      <path
         d="m -45.402989,126.28438 0,-3.05389 0.6603,0 c 0.275125,0.0138 0.508981,0.0413 0.701569,0.0825 0.192587,0.055 0.343906,0.13756 0.453956,0.24761 0.11005,0.12381 0.178831,0.27513 0.233856,0.46772 0.04127,0.19258 0.06878,0.4402 0.06878,0.72908 0,0.30263 -0.02751,0.55025 -0.06878,0.74283 -0.05503,0.19259 -0.137562,0.35767 -0.247612,0.46772 -0.123807,0.1238 -0.275125,0.20634 -0.453957,0.24761 -0.192587,0.055 -0.412687,0.0688 -0.687812,0.0688 l -0.6603,0 z m -1.705775,5.47499 1.705775,0 0,-4.07185 0.742837,0 c 0.522738,0 0.99045,-0.055 1.375625,-0.16508 0.385175,-0.0963 0.701569,-0.26136 0.962938,-0.50898 0.247612,-0.23385 0.4402,-0.53649 0.564006,-0.90791 0.11005,-0.35766 0.178831,-0.81162 0.178831,-1.34811 -0.01376,-1.04548 -0.261368,-1.80207 -0.756593,-2.25603 -0.495225,-0.4402 -1.279332,-0.67405 -2.324807,-0.67405 l -2.448612,0 0,9.93201 z"
         id="path4688"
         inkscape:connector-curvature="0" />
      <path
         d="m -38.68994,128.07269 0.674056,-4.26443 0.02751,0 0.674056,4.26443 -1.375625,0 z m -0.55025,3.68668 0.302638,-2.201 1.87085,0 0.302637,2.201 1.65075,0 -1.829581,-9.93201 -2.118463,0 -1.829581,9.93201 1.65075,0 z"
         id="path4690"
         inkscape:connector-curvature="0" />
      <path
         d="m -29.275719,119.50255 -0.77035,0 c -0.01376,0.20634 -0.05503,0.35766 -0.137562,0.45396 -0.08254,0.11005 -0.233857,0.15131 -0.4402,0.15131 -0.165075,0 -0.302638,-0.0413 -0.426444,-0.0963 -0.137563,-0.055 -0.261369,-0.11005 -0.398931,-0.17883 -0.137563,-0.055 -0.288882,-0.12381 -0.426444,-0.17883 -0.151319,-0.055 -0.302638,-0.0825 -0.467713,-0.0825 -0.233856,0.0138 -0.426444,0.0688 -0.591519,0.15132 -0.165075,0.0963 -0.302637,0.2201 -0.412687,0.37142 -0.11005,0.16507 -0.206344,0.33015 -0.261369,0.52274 -0.06878,0.19258 -0.123806,0.38517 -0.151319,0.57776 l 0.77035,0 c 0,-0.19259 0.05503,-0.34391 0.137563,-0.45396 0.08254,-0.0963 0.2201,-0.15132 0.4402,-0.15132 0.151319,0.0138 0.288881,0.0413 0.426444,0.0825 0.123806,0.055 0.261369,0.11005 0.398931,0.17883 0.137563,0.0825 0.275125,0.13756 0.426444,0.19259 0.137562,0.055 0.302637,0.0825 0.467712,0.0825 0.247613,0 0.4402,-0.055 0.591519,-0.15132 0.137563,-0.0825 0.275125,-0.20635 0.398931,-0.37142 0.11005,-0.15132 0.206344,-0.33015 0.275125,-0.52274 0.05503,-0.19259 0.11005,-0.38517 0.151319,-0.57776 z m -4.855956,12.25682 1.5407,0 0,-6.20407 0.02751,0 2.173488,6.20407 1.485675,0 0,-9.93201 -1.5407,0 0,5.68133 -0.02751,0 -2.077194,-5.68133 -1.581968,0 0,9.93201 z"
         id="path4692"
         inkscape:connector-curvature="0" />
      <path
         d="m -25.712851,128.07269 0.674056,-4.26443 0.02751,0 0.674056,4.26443 -1.375625,0 z m -0.55025,3.68668 0.302637,-2.201 1.870851,0 0.302637,2.201 1.65075,0 -1.829581,-9.93201 -2.118463,0 -1.829581,9.93201 1.65075,0 z"
         id="path4694"
         inkscape:connector-curvature="0" />
    </g>
    <g
       id="g4946"
       transform="translate(330,0.14747331)">
      <path
         style="fill:#231f20"
         inkscape:connector-curvature="0"
         id="path4879"
         d="m 67.8211,56.50008 c 0,0.889 0.262,1.317 1.084,1.317 0.824,0 1.088,-0.428 1.088,-1.317 l 0,-6.022 c 0,-0.889 -0.264,-1.317 -1.088,-1.317 -0.822,0 -1.084,0.428 -1.084,1.317 l 0,6.022 z m -2.04,-6.072 c 0,-1.68 0.986,-3.046 3.125,-3.046 2.139,0 3.128,1.366 3.128,3.046 l 0,6.121 c 0,1.68 -0.99,3.046 -3.128,3.046 -2.139,0 -3.125,-1.366 -3.125,-3.046 l 0,-6.121 z" />
      <path
         style="fill:#231f20"
         inkscape:connector-curvature="0"
         id="path4881"
         d="m 58.4161,51.51308 0,-0.922 c 0,-1.003 -0.461,-1.431 -0.988,-1.431 -0.824,0 -1.086,0.428 -1.086,1.317 l 0,6.024 c 0,0.889 0.262,1.317 1.086,1.317 0.741,0 0.988,-0.428 0.988,-1.201 l 0,-1.433 2.04,0 0,1.366 c 0,1.68 -0.988,3.046 -3.028,3.046 -2.141,0 -3.126,-1.366 -3.126,-3.046 l 0,-6.123 c 0,-1.68 0.986,-3.046 3.126,-3.046 2.04,0 3.028,1.482 3.028,3.258 l 0,0.873 -2.04,0 z" />
      <rect
         style="fill:#231f20"
         id="rect4883"
         height="11.928"
         width="2.0480001"
         y="47.552082"
         x="6.077105" />
      <polygon
         style="fill:#231f20"
         id="polygon4885"
         points="21.562,54.536 21.562,42.608 23.462,42.608 25.958,49.431 25.992,49.431 25.992,42.608 27.841,42.608 27.841,54.536 26.057,54.536 23.445,47.085 23.413,47.085 23.413,54.536 "
         transform="translate(-11.4459,4.9440799)" />
      <polygon
         style="fill:#231f20"
         id="polygon4887"
         points="34.8,44.393 32.817,44.393 32.817,54.537 30.769,54.537 30.769,44.393 28.786,44.393 28.786,42.609 34.8,42.609 "
         transform="translate(-11.4459,4.9440799)" />
      <polygon
         style="fill:#231f20"
         id="polygon4889"
         points="35.746,54.536 35.746,42.608 41.232,42.608 41.232,44.392 37.796,44.392 37.796,47.465 40.437,47.465 40.437,49.249 37.796,49.249 37.796,52.754 41.462,52.754 41.462,54.536 "
         transform="translate(-11.4459,4.9440799)" />
      <path
         style="fill:#231f20"
         inkscape:connector-curvature="0"
         id="path4891"
         d="m 33.2811,52.90408 0.727,0 c 1.106,0 1.52,-0.414 1.52,-1.831 0,-1.423 -0.414,-1.837 -1.52,-1.837 l -0.727,0 0,3.668 z m 0,6.576 -2.048,0 0,-11.928 2.874,0 c 2.297,0 3.471,0.974 3.471,3.521 0,1.914 -0.743,2.691 -1.437,3.004 l 1.733,5.403 -2.082,0 -1.455,-4.94 c -0.262,0.035 -0.692,0.049 -1.057,0.049 l 0,4.891 z" />
      <polygon
         style="fill:#231f20"
         id="polygon4893"
         points="50.611,54.536 50.611,42.608 52.512,42.608 55.006,49.431 55.039,49.431 55.039,42.608 56.89,42.608 56.89,54.536 55.106,54.536 52.496,47.085 52.463,47.085 52.463,54.536 "
         transform="translate(-11.4459,4.9440799)" />
      <path
         style="fill:#231f20"
         inkscape:connector-curvature="0"
         id="path4895"
         d="m 49.2521,55.05308 1.652,0 -0.81,-5.123 -0.032,0 -0.81,5.123 z m -0.663,4.427 -1.983,0 2.198,-11.928 2.545,0 2.198,11.928 -1.981,0 -0.365,-2.643 -2.247,0 -0.365,2.643 z" />
      <rect
         style="fill:#231f20"
         id="rect4897"
         height="11.928"
         width="2.0480001"
         y="47.552082"
         x="61.920094" />
      <polygon
         style="fill:#231f20"
         id="polygon4899"
         points="85.291,54.536 85.291,42.608 87.191,42.608 89.685,49.431 89.717,49.431 89.717,42.608 91.57,42.608 91.57,54.536 89.784,54.536 87.176,47.085 87.142,47.085 87.142,54.536 "
         transform="translate(-11.4459,4.9440799)" />
      <path
         style="fill:#231f20"
         inkscape:connector-curvature="0"
         id="path4901"
         d="m 83.9501,55.05308 1.654,0 -0.81,-5.123 -0.034,0 -0.81,5.123 z m -0.66,4.427 -1.983,0 2.198,-11.928 2.545,0 2.198,11.928 -1.985,0 -0.363,-2.643 -2.245,0 -0.365,2.643 z" />
      <polygon
         style="fill:#231f20"
         id="polygon4903"
         points="100.878,54.536 100.878,42.608 102.925,42.608 102.925,52.754 106.148,52.754 106.148,54.536 "
         transform="translate(-11.4459,4.9440799)" />
      <rect
         style="fill:#231f20"
         id="rect4905"
         height="19.808001"
         width="3.402"
         y="22.536079"
         x="49.363087" />
      <path
         style="fill:#231f20"
         inkscape:connector-curvature="0"
         id="path4907"
         d="m 61.7371,27.41908 c -0.138,-1.701 -1.043,-2.194 -1.812,-2.194 -1.096,0 -1.699,0.712 -1.699,1.948 0,3.373 6.913,4.993 6.913,10.369 0,3.264 -2.196,5.076 -5.378,5.076 -3.154,0 -4.966,-2.525 -5.102,-5.488 l 3.237,-0.465 c 0.138,2.003 0.932,2.991 2.028,2.991 1.181,0 1.977,-0.631 1.977,-1.812 0,-3.923 -6.915,-4.966 -6.915,-10.643 0,-3.156 1.922,-4.938 5.267,-4.938 2.772,0 4.418,2.003 4.719,4.8 l -3.235,0.356 z" />
      <polygon
         style="fill:#231f20"
         id="polygon4909"
         points="86.965,20.555 83.673,20.555 83.673,37.4 80.271,37.4 80.271,20.555 76.979,20.555 76.979,17.592 86.965,17.592 "
         transform="translate(-11.4459,4.9440799)" />
      <path
         sodipodi:nodetypes="ccccc"
         style="fill:#231f20"
         inkscape:connector-curvature="0"
         id="path4911"
         d="m 77.0621,22.53608 3.402,0 0,19.808 -3.402,0 z" />
      <path
         style="fill:#231f20"
         inkscape:connector-curvature="0"
         id="path4913"
         d="m 85.3181,42.34208 -3.292,0 3.649,-19.806 4.225,0 3.649,19.806 -3.292,0 -0.603,-4.388 -3.73,0 -0.606,4.388 z m 1.098,-7.351 2.742,0 -1.342,-8.504 -0.055,0 -1.345,8.504 z" />
      <path
         style="fill:#231f20"
         inkscape:connector-curvature="0"
         id="path4915"
         d="m 10.0361,34.98608 2.744,0 -1.344,-8.512 -0.053,0 -1.347,8.512 z m -1.098,7.357 -3.296,0 3.653,-19.821 4.228,0 3.651,19.821 -3.294,0 -0.605,-4.394 -3.734,0 -0.603,4.394 z" />
      <polygon
         style="fill:#231f20"
         id="polygon4917"
         points="41.11,21.915 38.035,37.399 36.387,37.399 33.314,21.915 33.259,21.915 33.259,37.399 30.294,37.399 30.294,17.578 34.769,17.578 37.184,29.163 37.239,29.163 39.656,17.578 44.13,17.578 44.13,37.399 41.164,37.399 41.164,21.915 "
         transform="translate(-11.4459,4.9440799)" />
      <polygon
         style="fill:#231f20"
         id="polygon4919"
         points="47.253,37.399 47.253,17.578 50.411,17.578 54.557,28.917 54.612,28.917 54.612,17.578 57.685,17.578 57.685,37.399 54.72,37.399 50.383,25.016 50.328,25.016 50.328,37.399 "
         transform="translate(-11.4459,4.9440799)" />
    </g>
    <rect
       y="2.0586858"
       x="301.30969"
       height="77.315628"
       width="20.961559"
       id="rect4942"
       style="fill:#000000;fill-opacity:1;fill-rule:evenodd;stroke:#000000;stroke-width:1.28185427px;stroke-linecap:butt;stroke-linejoin:miter;stroke-opacity:1" />
  </g>
</svg>
